<svg width="2515" height="831" viewBox="0 0 2515 831" fill="none" xmlns="http://www.w3.org/2000/svg">
    <g clip-path="url(#clip0_53_362)">
        <rect width="2515" height="831" fill="transparent" />
        <mask id="mask0_53_362" style="mask-type:alpha" maskUnits="userSpaceOnUse" x="-76" y="331" width="2630"
            height="617">
            <path
                d="M1105.12 664.531C1099.81 653.906 1096.62 642.219 1096.62 630C1096.62 589.094 1130.09 555.625 1171 555.625V566.25C1135.94 566.25 1107.25 594.938 1107.25 630C1107.25 640.625 1109.91 650.187 1114.69 659.219L1105.12 664.531ZM1234.75 630C1234.75 665.062 1206.06 693.75 1171 693.75C1155.59 693.75 1141.25 688.438 1130.09 678.875L1160.38 648.594L1152.94 640.625L1118.41 675.156C1116.28 677.281 1116.28 680.469 1118.41 682.594C1132.22 696.406 1151.34 704.375 1171 704.375C1211.91 704.375 1245.38 670.906 1245.38 630H1234.75Z"
                fill="#9CB4F2" />
            <path
                d="M1181.63 677.812C1181.09 677.812 1180.03 677.812 1179.5 677.281C1177.91 676.75 1176.31 675.156 1176.31 673.031L1172.59 646.469L1183.22 644.875L1185.34 662.406L1197.03 653.375V624.688C1197.03 623.094 1197.56 622.031 1198.63 620.969L1215.63 603.969C1220.41 599.188 1223.59 592.281 1223.59 585.375V576.875H1215.63C1208.72 576.875 1201.81 579.531 1197.03 584.844L1180.03 601.844C1178.97 602.906 1177.91 603.438 1176.31 603.438H1147.09L1138.06 615.125L1155.59 617.25L1154 627.875L1127.44 624.156C1125.31 624.156 1123.72 622.563 1123.19 620.969C1122.66 619.375 1122.66 617.25 1123.72 615.656L1139.66 594.406C1141.25 593.344 1142.84 592.812 1144.44 592.812H1174.19L1190.13 576.875C1197.03 569.969 1206.59 566.25 1216.16 566.25H1224.13C1229.97 566.25 1234.75 571.031 1234.75 576.875V584.844C1234.75 594.937 1231.03 603.969 1224.13 610.875L1208.19 626.812V656.562C1208.19 658.156 1207.66 659.75 1206.06 660.812L1184.81 676.75C1183.75 677.281 1182.69 677.812 1181.63 677.812Z"
                fill="#9CB4F2" />
            <path
                d="M772.125 600.531C766.812 589.906 763.625 578.219 763.625 566C763.625 525.094 797.094 491.625 838 491.625L838 502.25C802.937 502.25 774.25 530.938 774.25 566C774.25 576.625 776.906 586.188 781.687 595.219L772.125 600.531ZM901.75 566C901.75 601.063 873.062 629.75 838 629.75C822.594 629.75 808.25 624.438 797.094 614.875L827.375 584.594L819.937 576.625L785.406 611.156C783.281 613.281 783.281 616.469 785.406 618.594C799.219 632.406 818.344 640.375 838 640.375C878.906 640.375 912.375 606.906 912.375 566L901.75 566Z"
                fill="#9CB4F2" />
            <path
                d="M848.625 613.813C848.094 613.813 847.031 613.813 846.5 613.281C844.906 612.75 843.313 611.156 843.313 609.031L839.594 582.469L850.219 580.875L852.344 598.406L864.031 589.375L864.031 560.688C864.031 559.094 864.563 558.031 865.625 556.969L882.625 539.969C887.406 535.188 890.594 528.281 890.594 521.375L890.594 512.875L882.625 512.875C875.719 512.875 868.813 515.531 864.031 520.844L847.031 537.844C845.969 538.906 844.906 539.438 843.313 539.438L814.094 539.438L805.063 551.125L822.594 553.25L821 563.875L794.438 560.156C792.313 560.156 790.719 558.563 790.188 556.969C789.656 555.375 789.656 553.25 790.719 551.656L806.656 530.406C808.25 529.344 809.844 528.813 811.438 528.813L841.188 528.813L857.125 512.875C864.031 505.969 873.594 502.25 883.156 502.25L891.125 502.25C896.969 502.25 901.75 507.031 901.75 512.875L901.75 520.844C901.75 530.938 898.031 539.969 891.125 546.875L875.188 562.813L875.188 592.563C875.188 594.156 874.656 595.75 873.063 596.813L851.813 612.75C850.75 613.281 849.688 613.813 848.625 613.813Z"
                fill="#9CB4F2" />
            <path
                d="M1472.56 597.5C1470.47 597.51 1468.42 597.99 1466.54 598.906L1446.38 578.75H1430.38V588.125H1442.5L1459.91 605.539C1458.99 607.415 1458.51 609.474 1458.5 611.563C1458.5 614.344 1459.32 617.063 1460.87 619.375C1462.42 621.688 1464.61 623.49 1467.18 624.555C1469.75 625.619 1472.58 625.897 1475.31 625.355C1478.03 624.812 1480.54 623.473 1482.51 621.506C1484.47 619.54 1485.81 617.034 1486.35 614.306C1486.9 611.578 1486.62 608.751 1485.55 606.181C1484.49 603.611 1482.69 601.415 1480.38 599.87C1478.06 598.325 1475.34 597.5 1472.56 597.5ZM1472.56 616.25C1471.64 616.25 1470.73 615.975 1469.96 615.46C1469.19 614.945 1468.59 614.213 1468.23 613.356C1467.88 612.5 1467.78 611.557 1467.97 610.648C1468.15 609.739 1468.59 608.904 1469.25 608.248C1469.9 607.592 1470.74 607.146 1471.65 606.965C1472.56 606.784 1473.5 606.877 1474.36 607.232C1475.21 607.587 1475.94 608.187 1476.46 608.958C1476.98 609.729 1477.25 610.635 1477.25 611.563C1477.25 612.806 1476.76 613.998 1475.88 614.877C1475 615.756 1473.81 616.25 1472.56 616.25ZM1472.56 545.938C1469.66 545.946 1466.84 546.852 1464.47 548.531C1462.11 550.209 1460.33 552.578 1459.36 555.313H1430.38V564.688H1459.36C1460.23 567.112 1461.74 569.252 1463.74 570.874C1465.73 572.497 1468.14 573.539 1470.69 573.887C1473.24 574.235 1475.84 573.875 1478.2 572.847C1480.55 571.819 1482.59 570.163 1484.07 568.058C1485.55 565.954 1486.42 563.483 1486.6 560.915C1486.77 558.347 1486.23 555.782 1485.04 553.499C1483.86 551.216 1482.06 549.303 1479.86 547.969C1477.66 546.636 1475.14 545.933 1472.56 545.938ZM1472.56 564.688C1471.64 564.688 1470.73 564.413 1469.96 563.898C1469.19 563.382 1468.59 562.65 1468.23 561.794C1467.88 560.937 1467.78 559.995 1467.97 559.086C1468.15 558.176 1468.59 557.341 1469.25 556.685C1469.9 556.03 1470.74 555.583 1471.65 555.403C1472.56 555.222 1473.5 555.315 1474.36 555.669C1475.21 556.024 1475.94 556.625 1476.46 557.396C1476.98 558.167 1477.25 559.073 1477.25 560C1477.25 561.243 1476.76 562.435 1475.88 563.315C1475 564.194 1473.81 564.688 1472.56 564.688ZM1472.56 494.375C1468.83 494.379 1465.26 495.862 1462.62 498.498C1459.99 501.134 1458.5 504.709 1458.5 508.438C1458.52 510.683 1459.08 512.891 1460.13 514.873L1442.54 531.875H1430.38V541.25H1446.33L1466.96 521.319C1468.87 522.154 1470.95 522.552 1473.04 522.483C1475.13 522.414 1477.18 521.88 1479.03 520.92C1480.89 519.96 1482.51 518.598 1483.77 516.933C1485.04 515.268 1485.91 513.343 1486.34 511.297C1486.76 509.25 1486.73 507.135 1486.23 505.104C1485.74 503.073 1484.8 501.178 1483.48 499.558C1482.16 497.937 1480.49 496.63 1478.61 495.734C1476.72 494.837 1474.65 494.373 1472.56 494.375ZM1472.56 513.125C1471.64 513.125 1470.73 512.85 1469.96 512.335C1469.19 511.82 1468.59 511.088 1468.23 510.231C1467.88 509.375 1467.78 508.432 1467.97 507.523C1468.15 506.614 1468.59 505.779 1469.25 505.123C1469.9 504.467 1470.74 504.021 1471.65 503.84C1472.56 503.659 1473.5 503.752 1474.36 504.107C1475.21 504.462 1475.94 505.062 1476.46 505.833C1476.98 506.604 1477.25 507.51 1477.25 508.438C1477.25 509.681 1476.76 510.873 1475.88 511.752C1475 512.631 1473.81 513.125 1472.56 513.125Z"
                fill="#9CB4F2" />
            <path
                d="M1430.38 513.125H1439.75V503.75H1430.38C1427.7 503.759 1425.07 504.342 1422.64 505.46C1420.21 506.577 1418.06 508.204 1416.31 510.228C1414.57 508.204 1412.41 506.577 1409.99 505.46C1407.56 504.342 1404.92 503.759 1402.25 503.75H1397.56C1386.38 503.762 1375.65 508.211 1367.75 516.12C1359.84 524.029 1355.39 534.752 1355.38 545.938V574.062C1355.39 585.248 1359.84 595.971 1367.75 603.88C1375.65 611.789 1386.38 616.238 1397.56 616.25H1402.25C1404.92 616.241 1407.56 615.658 1409.99 614.54C1412.41 613.423 1414.57 611.796 1416.31 609.772C1418.06 611.796 1420.21 613.423 1422.64 614.54C1425.07 615.658 1427.7 616.241 1430.38 616.25H1439.75V606.875H1430.38C1427.89 606.873 1425.51 605.884 1423.75 604.126C1421.99 602.369 1421 599.986 1421 597.5V522.5C1421 520.014 1421.99 517.631 1423.75 515.874C1425.51 514.116 1427.89 513.127 1430.38 513.125ZM1402.25 606.875H1397.56C1389.68 606.861 1382.07 604.012 1376.11 598.848C1370.16 593.684 1366.26 586.551 1365.12 578.75H1374.12V569.375H1364.75V550.625H1378.81C1382.54 550.621 1386.12 549.139 1388.75 546.502C1391.39 543.866 1392.87 540.291 1392.88 536.562V527.188H1383.5V536.562C1383.5 537.806 1383.01 538.998 1382.13 539.877C1381.25 540.756 1380.06 541.25 1378.81 541.25H1365.12C1366.26 533.449 1370.16 526.316 1376.11 521.152C1382.07 515.988 1389.68 513.139 1397.56 513.125H1402.25C1404.74 513.127 1407.12 514.116 1408.88 515.874C1410.63 517.631 1411.62 520.014 1411.62 522.5V541.25H1402.25V550.625H1411.62V569.375H1402.25C1398.52 569.379 1394.95 570.861 1392.31 573.498C1389.67 576.134 1388.19 579.709 1388.19 583.438V592.812H1397.56V583.438C1397.56 582.194 1398.06 581.002 1398.94 580.123C1399.81 579.244 1401.01 578.75 1402.25 578.75H1411.62V597.5C1411.62 599.986 1410.63 602.369 1408.88 604.126C1407.12 605.884 1404.74 606.873 1402.25 606.875Z"
                fill="#9CB4F2" />
            <path
                d="M498.437 585.5C500.526 585.49 502.585 585.01 504.461 584.094L524.617 604.25L540.625 604.25L540.625 594.875L528.503 594.875L511.089 577.461C512.006 575.585 512.488 573.526 512.5 571.437C512.5 568.656 511.675 565.937 510.13 563.625C508.585 561.312 506.389 559.51 503.819 558.445C501.249 557.381 498.422 557.103 495.694 557.645C492.966 558.188 490.46 559.527 488.494 561.494C486.527 563.46 485.188 565.966 484.645 568.694C484.103 571.422 484.381 574.249 485.445 576.819C486.51 579.389 488.312 581.585 490.625 583.13C492.937 584.675 495.656 585.5 498.437 585.5ZM498.437 566.75C499.365 566.75 500.271 567.025 501.042 567.54C501.813 568.055 502.413 568.787 502.768 569.644C503.123 570.5 503.216 571.443 503.035 572.352C502.854 573.261 502.408 574.097 501.752 574.752C501.096 575.408 500.261 575.854 499.352 576.035C498.443 576.216 497.5 576.123 496.644 575.768C495.787 575.413 495.055 574.813 494.54 574.042C494.025 573.271 493.75 572.365 493.75 571.437C493.75 570.194 494.244 569.002 495.123 568.123C496.002 567.244 497.194 566.75 498.437 566.75ZM498.437 637.062C501.336 637.054 504.162 636.148 506.525 634.469C508.889 632.791 510.674 630.422 511.637 627.687L540.625 627.687L540.625 618.312L511.637 618.312C510.774 615.888 509.261 613.748 507.263 612.126C505.265 610.503 502.86 609.461 500.31 609.113C497.76 608.765 495.164 609.125 492.805 610.153C490.446 611.181 488.414 612.837 486.933 614.942C485.451 617.046 484.577 619.517 484.405 622.085C484.233 624.653 484.77 627.218 485.957 629.501C487.145 631.784 488.937 633.697 491.138 635.031C493.339 636.364 495.864 637.067 498.437 637.062ZM498.437 618.312C499.365 618.312 500.271 618.587 501.042 619.102C501.813 619.618 502.413 620.35 502.768 621.206C503.123 622.063 503.216 623.005 503.035 623.914C502.854 624.824 502.408 625.659 501.752 626.315C501.097 626.97 500.261 627.417 499.352 627.597C498.443 627.778 497.5 627.685 496.644 627.331C495.787 626.976 495.055 626.375 494.54 625.604C494.025 624.833 493.75 623.927 493.75 623C493.75 621.757 494.244 620.565 495.123 619.685C496.002 618.806 497.194 618.312 498.437 618.312ZM498.437 688.625C502.166 688.621 505.741 687.138 508.377 684.502C511.014 681.866 512.496 678.291 512.5 674.562C512.484 672.317 511.924 670.109 510.869 668.127L528.456 651.125L540.625 651.125L540.625 641.75L524.669 641.75L504.044 661.681C502.128 660.846 500.05 660.448 497.961 660.517C495.872 660.586 493.824 661.12 491.968 662.08C490.111 663.04 488.492 664.402 487.228 666.067C485.964 667.732 485.087 669.657 484.662 671.703C484.236 673.75 484.272 675.865 484.767 677.896C485.262 679.927 486.203 681.822 487.523 683.442C488.842 685.063 490.507 686.37 492.395 687.266C494.283 688.163 496.347 688.627 498.437 688.625ZM498.437 669.875C499.365 669.875 500.271 670.15 501.042 670.665C501.813 671.18 502.413 671.912 502.768 672.769C503.123 673.625 503.216 674.568 503.035 675.477C502.854 676.386 502.408 677.222 501.752 677.877C501.097 678.533 500.261 678.979 499.352 679.16C498.443 679.341 497.5 679.248 496.644 678.893C495.787 678.538 495.055 677.938 494.54 677.167C494.025 676.396 493.75 675.49 493.75 674.562C493.75 673.319 494.244 672.127 495.123 671.248C496.002 670.369 497.194 669.875 498.437 669.875Z"
                fill="#9CB4F2" />
            <path
                d="M540.625 669.875L531.25 669.875L531.25 679.25L540.625 679.25C543.296 679.241 545.935 678.658 548.361 677.54C550.787 676.423 552.945 674.796 554.687 672.772C556.43 674.796 558.588 676.423 561.014 677.54C563.44 678.658 566.079 679.241 568.75 679.25L573.438 679.25C584.623 679.238 595.346 674.789 603.255 666.88C611.164 658.971 615.613 648.248 615.625 637.062L615.625 608.938C615.613 597.752 611.164 587.029 603.255 579.12C595.346 571.211 584.623 566.762 573.437 566.75L568.75 566.75C566.079 566.759 563.44 567.342 561.014 568.46C558.588 569.577 556.43 571.204 554.687 573.228C552.945 571.204 550.787 569.577 548.361 568.46C545.934 567.342 543.296 566.759 540.625 566.75L531.25 566.75L531.25 576.125L540.625 576.125C543.111 576.127 545.494 577.116 547.251 578.874C549.009 580.631 549.998 583.014 550 585.5L550 660.5C549.998 662.986 549.009 665.369 547.251 667.126C545.494 668.884 543.111 669.873 540.625 669.875ZM568.75 576.125L573.437 576.125C581.32 576.139 588.934 578.988 594.889 584.152C600.845 589.316 604.744 596.449 605.875 604.25L596.875 604.25L596.875 613.625L606.25 613.625L606.25 632.375L592.187 632.375C588.459 632.379 584.884 633.862 582.248 636.498C579.611 639.134 578.129 642.709 578.125 646.438L578.125 655.813L587.5 655.813L587.5 646.438C587.5 645.194 587.994 644.002 588.873 643.123C589.752 642.244 590.944 641.75 592.187 641.75L605.875 641.75C604.744 649.551 600.845 656.684 594.889 661.848C588.934 667.012 581.32 669.861 573.437 669.875L568.75 669.875C566.264 669.873 563.881 668.884 562.124 667.126C560.366 665.369 559.377 662.986 559.375 660.5L559.375 641.75L568.75 641.75L568.75 632.375L559.375 632.375L559.375 613.625L568.75 613.625C572.478 613.621 576.053 612.139 578.69 609.502C581.326 606.866 582.809 603.291 582.812 599.563L582.812 590.188L573.437 590.188L573.437 599.563C573.437 600.806 572.944 601.998 572.065 602.877C571.185 603.756 569.993 604.25 568.75 604.25L559.375 604.25L559.375 585.5C559.377 583.014 560.366 580.631 562.124 578.874C563.881 577.116 566.264 576.127 568.75 576.125Z"
                fill="#9CB4F2" />
            <path
                d="M2331.44 539.5C2333.53 539.49 2335.58 539.01 2337.46 538.094L2357.62 558.25L2373.62 558.25L2373.62 548.875L2361.5 548.875L2344.09 531.461C2345.01 529.585 2345.49 527.526 2345.5 525.437C2345.5 522.656 2344.68 519.937 2343.13 517.625C2341.58 515.312 2339.39 513.51 2336.82 512.445C2334.25 511.381 2331.42 511.103 2328.69 511.645C2325.97 512.188 2323.46 513.527 2321.49 515.494C2319.53 517.46 2318.19 519.966 2317.65 522.694C2317.1 525.422 2317.38 528.249 2318.45 530.819C2319.51 533.389 2321.31 535.585 2323.62 537.13C2325.94 538.675 2328.66 539.5 2331.44 539.5ZM2331.44 520.75C2332.36 520.75 2333.27 521.025 2334.04 521.54C2334.81 522.055 2335.41 522.787 2335.77 523.644C2336.12 524.5 2336.22 525.443 2336.03 526.352C2335.85 527.261 2335.41 528.097 2334.75 528.752C2334.1 529.408 2333.26 529.854 2332.35 530.035C2331.44 530.216 2330.5 530.123 2329.64 529.768C2328.79 529.413 2328.06 528.813 2327.54 528.042C2327.02 527.271 2326.75 526.365 2326.75 525.437C2326.75 524.194 2327.24 523.002 2328.12 522.123C2329 521.244 2330.19 520.75 2331.44 520.75ZM2331.44 591.062C2334.34 591.054 2337.16 590.148 2339.53 588.469C2341.89 586.791 2343.67 584.422 2344.64 581.687L2373.62 581.687L2373.62 572.312L2344.64 572.312C2343.77 569.888 2342.26 567.748 2340.26 566.126C2338.27 564.503 2335.86 563.461 2333.31 563.113C2330.76 562.765 2328.16 563.125 2325.8 564.153C2323.45 565.181 2321.41 566.837 2319.93 568.942C2318.45 571.046 2317.58 573.517 2317.4 576.085C2317.23 578.653 2317.77 581.218 2318.96 583.501C2320.14 585.784 2321.94 587.697 2324.14 589.031C2326.34 590.364 2328.86 591.067 2331.44 591.062ZM2331.44 572.312C2332.36 572.312 2333.27 572.587 2334.04 573.102C2334.81 573.618 2335.41 574.35 2335.77 575.206C2336.12 576.063 2336.22 577.005 2336.03 577.914C2335.85 578.824 2335.41 579.659 2334.75 580.315C2334.1 580.97 2333.26 581.417 2332.35 581.597C2331.44 581.778 2330.5 581.685 2329.64 581.331C2328.79 580.976 2328.06 580.375 2327.54 579.604C2327.02 578.833 2326.75 577.927 2326.75 577C2326.75 575.757 2327.24 574.565 2328.12 573.685C2329 572.806 2330.19 572.312 2331.44 572.312ZM2331.44 642.625C2335.17 642.621 2338.74 641.138 2341.38 638.502C2344.01 635.866 2345.5 632.291 2345.5 628.562C2345.48 626.317 2344.92 624.109 2343.87 622.127L2361.46 605.125L2373.62 605.125L2373.62 595.75L2357.67 595.75L2337.04 615.681C2335.13 614.846 2333.05 614.448 2330.96 614.517C2328.87 614.586 2326.82 615.12 2324.97 616.08C2323.11 617.04 2321.49 618.402 2320.23 620.067C2318.96 621.732 2318.09 623.657 2317.66 625.703C2317.24 627.75 2317.27 629.865 2317.77 631.896C2318.26 633.927 2319.2 635.822 2320.52 637.442C2321.84 639.063 2323.51 640.37 2325.39 641.266C2327.28 642.163 2329.35 642.627 2331.44 642.625ZM2331.44 623.875C2332.36 623.875 2333.27 624.15 2334.04 624.665C2334.81 625.18 2335.41 625.912 2335.77 626.769C2336.12 627.625 2336.22 628.568 2336.03 629.477C2335.85 630.386 2335.41 631.222 2334.75 631.877C2334.1 632.533 2333.26 632.979 2332.35 633.16C2331.44 633.341 2330.5 633.248 2329.64 632.893C2328.79 632.538 2328.06 631.938 2327.54 631.167C2327.02 630.396 2326.75 629.49 2326.75 628.562C2326.75 627.319 2327.24 626.127 2328.12 625.248C2329 624.369 2330.19 623.875 2331.44 623.875Z"
                fill="#9CB4F2" />
            <path
                d="M2373.62 623.875L2364.25 623.875L2364.25 633.25L2373.62 633.25C2376.3 633.241 2378.93 632.658 2381.36 631.54C2383.79 630.423 2385.94 628.796 2387.69 626.772C2389.43 628.796 2391.59 630.423 2394.01 631.54C2396.44 632.658 2399.08 633.241 2401.75 633.25L2406.44 633.25C2417.62 633.238 2428.35 628.789 2436.25 620.88C2444.16 612.971 2448.61 602.248 2448.62 591.062L2448.62 562.938C2448.61 551.752 2444.16 541.029 2436.25 533.12C2428.35 525.211 2417.62 520.762 2406.44 520.75L2401.75 520.75C2399.08 520.759 2396.44 521.342 2394.01 522.46C2391.59 523.577 2389.43 525.204 2387.69 527.228C2385.94 525.204 2383.79 523.577 2381.36 522.46C2378.93 521.342 2376.3 520.759 2373.62 520.75L2364.25 520.75L2364.25 530.125L2373.62 530.125C2376.11 530.127 2378.49 531.116 2380.25 532.874C2382.01 534.631 2383 537.014 2383 539.5L2383 614.5C2383 616.986 2382.01 619.369 2380.25 621.126C2378.49 622.884 2376.11 623.873 2373.62 623.875ZM2401.75 530.125L2406.44 530.125C2414.32 530.139 2421.93 532.988 2427.89 538.152C2433.84 543.316 2437.74 550.449 2438.87 558.25L2429.87 558.25L2429.87 567.625L2439.25 567.625L2439.25 586.375L2425.19 586.375C2421.46 586.379 2417.88 587.862 2415.25 590.498C2412.61 593.134 2411.13 596.709 2411.12 600.438L2411.12 609.813L2420.5 609.813L2420.5 600.438C2420.5 599.194 2420.99 598.002 2421.87 597.123C2422.75 596.244 2423.94 595.75 2425.19 595.75L2438.87 595.75C2437.74 603.551 2433.84 610.684 2427.89 615.848C2421.93 621.012 2414.32 623.861 2406.44 623.875L2401.75 623.875C2399.26 623.873 2396.88 622.884 2395.12 621.126C2393.37 619.369 2392.38 616.986 2392.37 614.5L2392.37 595.75L2401.75 595.75L2401.75 586.375L2392.37 586.375L2392.37 567.625L2401.75 567.625C2405.48 567.621 2409.05 566.139 2411.69 563.502C2414.33 560.866 2415.81 557.291 2415.81 553.563L2415.81 544.188L2406.44 544.188L2406.44 553.563C2406.44 554.806 2405.94 555.998 2405.06 556.877C2404.19 557.756 2402.99 558.25 2401.75 558.25L2392.37 558.25L2392.37 539.5C2392.38 537.014 2393.37 534.631 2395.12 532.874C2396.88 531.116 2399.26 530.127 2401.75 530.125Z"
                fill="#9CB4F2" />
            <g clip-path="url(#clip1_53_362)">
                <path
                    d="M998.714 690.965L1027.48 706.75L1022.97 714.969L994.204 699.183L998.714 690.965ZM987.439 711.512L1016.21 727.297L1011.69 735.516L982.929 719.731L987.439 711.512ZM976.164 732.059L1004.93 747.844L1000.42 756.063L971.654 740.278L976.164 732.059ZM945.292 661.649L974.058 677.434L969.548 685.653L940.782 669.868L945.292 661.649ZM934.016 682.196L962.782 697.981L958.272 706.2L929.506 690.415L934.016 682.196ZM922.741 702.743L951.507 718.529L946.997 726.747L918.231 710.962L922.741 702.743Z"
                    fill="#9CB4F2" />
                <path
                    d="M1046.97 690.713L948.348 636.592C946.168 635.398 943.603 635.118 941.217 635.813C938.83 636.509 936.817 638.122 935.619 640.3L895.028 714.27C893.835 716.45 893.555 719.015 894.25 721.402C894.945 723.788 896.559 725.801 898.737 726.999L997.363 781.12C999.544 782.314 1002.11 782.594 1004.49 781.899C1006.88 781.203 1008.89 779.59 1010.09 777.412L1050.68 703.442C1051.88 701.262 1052.16 698.697 1051.46 696.31C1050.77 693.924 1049.15 691.911 1046.97 690.713ZM943.838 644.811L989.042 669.616L948.451 743.586L903.247 718.78L943.838 644.811ZM956.67 748.096L997.261 674.126L1042.46 698.932L1001.87 772.901L956.67 748.096Z"
                    fill="#9CB4F2" />
            </g>
            <path
                d="M1820.68 713.172L1830.96 720.025C1831.96 720.69 1833.17 720.948 1834.35 720.746C1835.53 720.543 1836.59 719.896 1837.31 718.938L1851.37 700.188L1843.88 694.562L1832.47 709.769L1822.1 702.85C1821.09 702.174 1819.85 701.918 1818.66 702.137C1817.46 702.355 1816.39 703.031 1815.68 704.022L1800.75 724.933V688H1791.38V734.875C1791.38 737.361 1792.37 739.744 1794.12 741.501C1795.88 743.259 1798.26 744.248 1800.75 744.25H1847.62V734.875H1805.17L1820.68 713.172ZM1716.38 711.438H1782V720.812H1716.38V711.438ZM1716.38 734.875H1782V744.25H1716.38V734.875ZM1758.56 688V664.562H1763.25C1768.22 664.556 1772.99 662.579 1776.5 659.064C1780.02 655.549 1781.99 650.783 1782 645.812V631.75H1767.94C1763.14 631.758 1758.53 633.617 1755.06 636.939C1752.63 632.532 1749.07 628.856 1744.74 626.294C1740.41 623.733 1735.47 622.379 1730.44 622.375H1716.38V636.438C1716.38 643.894 1719.35 651.043 1724.62 656.315C1729.89 661.588 1737.04 664.554 1744.5 664.562H1749.19V688H1716.38V697.375H1782V688H1758.56ZM1767.94 641.125H1772.62V645.812C1772.62 648.298 1771.63 650.681 1769.88 652.439C1768.12 654.196 1765.74 655.185 1763.25 655.188H1758.56V650.5C1758.56 648.014 1759.55 645.631 1761.31 643.874C1763.07 642.116 1765.45 641.127 1767.94 641.125ZM1744.5 655.188C1739.53 655.181 1734.76 653.204 1731.25 649.689C1727.73 646.174 1725.76 641.408 1725.75 636.438V631.75H1730.44C1735.41 631.756 1740.17 633.734 1743.69 637.249C1747.2 640.764 1749.18 645.529 1749.19 650.5V655.188H1744.5Z"
                fill="#9CB4F2" />
            <g clip-path="url(#clip2_53_362)">
                <path
                    d="M244.7 675.18L252.86 684.462C253.651 685.362 254.756 685.925 255.95 686.036C257.143 686.146 258.334 685.795 259.276 685.055L277.713 670.584L271.924 663.209L256.972 674.945L248.747 665.579C247.945 664.664 246.817 664.097 245.604 663.998C244.39 663.899 243.186 664.276 242.246 665.05L222.408 681.383L231.967 645.709L222.911 643.282L210.779 688.56C210.138 690.962 210.476 693.519 211.719 695.672C212.962 697.825 215.008 699.396 217.408 700.042L262.686 712.174L265.113 703.119L224.104 692.131L244.7 675.18ZM144.401 646.51L207.79 663.495L205.363 672.55L141.974 655.565L144.401 646.51ZM138.335 669.149L201.724 686.134L199.297 695.189L135.908 678.204L138.335 669.149ZM191.217 634.79L197.283 612.151L201.811 613.364C206.614 614.645 211.729 613.968 216.034 611.483C220.339 608.997 223.482 604.906 224.775 600.106L228.414 586.522L214.831 582.883C210.192 581.648 205.256 582.25 201.05 584.562C199.846 579.677 197.354 575.204 193.834 571.609C190.314 568.014 185.894 565.428 181.035 564.122L167.452 560.482L163.812 574.065C161.891 581.27 162.905 588.943 166.634 595.4C170.362 601.858 176.499 606.573 183.7 608.511L188.227 609.724L182.161 632.363L150.467 623.871L148.04 632.926L211.429 649.911L213.856 640.856L191.217 634.79ZM212.405 591.938L216.932 593.152L215.719 597.679C215.073 600.08 213.502 602.126 211.349 603.369C209.197 604.611 206.639 604.949 204.237 604.309L199.709 603.095L200.923 598.568C201.568 596.167 203.14 594.121 205.293 592.878C207.445 591.636 210.003 591.297 212.405 591.938ZM186.126 599.456C181.326 598.163 177.235 595.02 174.749 590.715C172.264 586.41 171.587 581.295 172.868 576.492L174.081 571.964L178.609 573.177C183.409 574.47 187.5 577.613 189.986 581.918C192.471 586.223 193.148 591.338 191.867 596.141L190.654 600.669L186.126 599.456Z"
                    fill="#9CB4F2" />
            </g>
            <path
                d="M1611.87 660.125C1607.73 660.137 1603.71 661.525 1600.43 664.069C1597.16 666.614 1594.82 670.173 1593.79 674.187H1574.05C1573.17 667.227 1570.36 660.652 1565.94 655.21C1561.51 649.768 1555.65 645.676 1549.01 643.402C1542.38 641.127 1535.24 640.76 1528.4 642.343C1521.57 643.926 1515.31 647.394 1510.35 652.354C1505.39 657.315 1501.93 663.567 1500.34 670.401C1498.76 677.235 1499.13 684.376 1501.4 691.012C1503.68 697.647 1507.77 703.512 1513.21 707.937C1518.65 712.363 1525.23 715.173 1532.19 716.047V735.791C1527.77 736.932 1523.92 739.645 1521.36 743.422C1518.8 747.199 1517.7 751.781 1518.27 756.308C1518.85 760.835 1521.06 764.997 1524.48 768.014C1527.9 771.031 1532.31 772.695 1536.87 772.695C1541.44 772.695 1545.85 771.031 1549.27 768.014C1552.69 764.997 1554.9 760.835 1555.48 756.308C1556.05 751.781 1554.95 747.199 1552.39 743.422C1549.83 739.645 1545.98 736.932 1541.56 735.791V716.052C1548.23 715.213 1554.54 712.589 1559.83 708.458L1577.03 725.661C1575.31 728.519 1574.39 731.789 1574.37 735.125C1574.37 738.833 1575.47 742.459 1577.53 745.542C1579.6 748.625 1582.52 751.029 1585.95 752.448C1589.38 753.867 1593.15 754.238 1596.78 753.515C1600.42 752.791 1603.76 751.005 1606.38 748.383C1609.01 745.761 1610.79 742.42 1611.51 738.783C1612.24 735.146 1611.87 731.376 1610.45 727.95C1609.03 724.524 1606.63 721.595 1603.54 719.535C1600.46 717.475 1596.83 716.375 1593.12 716.375C1589.79 716.392 1586.52 717.311 1583.66 719.033L1566.46 701.83C1570.59 696.536 1573.22 690.225 1574.06 683.562H1593.8C1594.68 686.95 1596.49 690.021 1599.03 692.429C1601.57 694.836 1604.74 696.483 1608.17 697.182C1611.6 697.881 1615.16 697.605 1618.44 696.384C1621.72 695.162 1624.59 693.046 1626.73 690.274C1628.87 687.503 1630.18 684.187 1630.53 680.704C1630.88 677.221 1630.24 673.711 1628.7 670.571C1627.15 667.431 1624.75 664.787 1621.78 662.941C1618.81 661.094 1615.38 660.119 1611.87 660.125ZM1546.25 753.875C1546.25 755.729 1545.7 757.542 1544.67 759.083C1543.64 760.625 1542.18 761.827 1540.46 762.536C1538.75 763.246 1536.86 763.432 1535.05 763.07C1533.23 762.708 1531.56 761.815 1530.25 760.504C1528.93 759.193 1528.04 757.523 1527.68 755.704C1527.32 753.885 1527.5 752 1528.21 750.287C1528.92 748.574 1530.12 747.11 1531.67 746.08C1533.21 745.05 1535.02 744.5 1536.87 744.5C1539.36 744.502 1541.74 745.491 1543.5 747.249C1545.26 749.006 1546.25 751.389 1546.25 753.875ZM1536.87 707C1531.31 707 1525.87 705.35 1521.25 702.26C1516.62 699.17 1513.02 694.777 1510.89 689.638C1508.76 684.499 1508.21 678.844 1509.29 673.388C1510.38 667.932 1513.05 662.921 1516.99 658.988C1520.92 655.054 1525.93 652.376 1531.39 651.29C1536.84 650.205 1542.5 650.762 1547.64 652.891C1552.78 655.02 1557.17 658.624 1560.26 663.25C1563.35 667.875 1565 673.312 1565 678.875C1564.99 686.332 1562.03 693.48 1556.75 698.753C1551.48 704.025 1544.33 706.991 1536.87 707ZM1602.5 735.125C1602.5 736.979 1601.95 738.792 1600.92 740.333C1599.89 741.875 1598.43 743.077 1596.71 743.786C1595 744.496 1593.11 744.682 1591.3 744.32C1589.48 743.958 1587.81 743.065 1586.5 741.754C1585.18 740.443 1584.29 738.773 1583.93 736.954C1583.57 735.135 1583.75 733.25 1584.46 731.537C1585.17 729.824 1586.37 728.36 1587.92 727.33C1589.46 726.3 1591.27 725.75 1593.12 725.75C1595.61 725.752 1597.99 726.741 1599.75 728.499C1601.51 730.256 1602.5 732.639 1602.5 735.125ZM1611.87 688.25C1610.02 688.25 1608.21 687.7 1606.67 686.67C1605.12 685.64 1603.92 684.176 1603.21 682.463C1602.5 680.75 1602.32 678.865 1602.68 677.046C1603.04 675.227 1603.93 673.557 1605.25 672.246C1606.56 670.935 1608.23 670.042 1610.05 669.68C1611.86 669.318 1613.75 669.504 1615.46 670.214C1617.18 670.923 1618.64 672.125 1619.67 673.667C1620.7 675.208 1621.25 677.021 1621.25 678.875C1621.25 681.361 1620.26 683.744 1618.5 685.501C1616.74 687.259 1614.36 688.248 1611.87 688.25Z"
                fill="#9CB4F2" />
            <g clip-path="url(#clip3_53_362)">
                <path
                    d="M629.266 773.71C625.258 772.649 621.012 772.948 617.192 774.559C613.372 776.17 610.195 779.003 608.158 782.613L589.087 777.503C590.044 770.554 589.032 763.476 586.165 757.073C583.299 750.671 578.693 745.201 572.873 741.287C567.052 737.372 560.249 735.17 553.238 734.93C546.228 734.69 539.29 736.422 533.216 739.929C527.141 743.437 522.172 748.578 518.874 754.77C515.577 760.961 514.083 767.954 514.563 774.952C515.042 781.95 517.476 788.674 521.588 794.357C525.699 800.041 531.323 804.456 537.82 807.102L532.71 826.173C528.146 826.131 523.724 827.756 520.273 830.741C516.821 833.727 514.577 837.868 513.961 842.39C513.344 846.912 514.398 851.503 516.925 855.304C519.452 859.104 523.278 861.852 527.686 863.033C532.094 864.215 536.782 863.747 540.87 861.72C544.958 859.692 548.167 856.243 549.894 852.019C551.621 847.794 551.748 843.085 550.252 838.774C548.756 834.463 545.738 830.845 541.765 828.6L546.874 809.533C553.528 810.448 560.305 809.547 566.489 806.927L578.649 827.995C576.246 830.31 574.513 833.231 573.632 836.449C572.672 840.031 572.796 843.817 573.988 847.329C575.18 850.841 577.387 853.92 580.329 856.177C583.271 858.435 586.816 859.769 590.517 860.012C594.217 860.254 597.907 859.394 601.118 857.54C604.33 855.686 606.919 852.921 608.559 849.595C610.2 846.269 610.817 842.531 610.333 838.855C609.849 835.178 608.285 831.727 605.84 828.939C603.395 826.151 600.178 824.151 596.596 823.191C593.369 822.344 589.973 822.385 586.766 823.309L574.602 802.239C579.964 798.196 584.133 792.779 586.669 786.561L605.736 791.67C605.712 795.17 606.67 798.607 608.501 801.59C610.332 804.573 612.963 806.983 616.095 808.546C619.227 810.109 622.735 810.762 626.22 810.432C629.704 810.101 633.027 808.8 635.809 806.677C638.591 804.553 640.723 801.691 641.96 798.417C643.198 795.143 643.493 791.587 642.812 788.154C642.13 784.721 640.5 781.547 638.105 778.994C635.711 776.441 632.648 774.61 629.266 773.71ZM541.612 847.281C541.133 849.072 540.132 850.68 538.738 851.903C537.344 853.126 535.619 853.907 533.781 854.149C531.942 854.391 530.073 854.083 528.41 853.263C526.747 852.443 525.365 851.148 524.438 849.542C523.511 847.936 523.081 846.092 523.202 844.241C523.323 842.391 523.99 840.618 525.119 839.147C526.248 837.676 527.788 836.573 529.543 835.977C531.299 835.381 533.192 835.319 534.983 835.799C537.384 836.445 539.43 838.016 540.673 840.169C541.915 842.322 542.253 844.879 541.612 847.281ZM544.689 799.577C539.316 798.137 534.491 795.136 530.823 790.954C527.155 786.772 524.81 781.596 524.084 776.081C523.358 770.566 524.284 764.96 526.744 759.971C529.204 754.982 533.088 750.834 537.906 748.053C542.723 745.272 548.257 743.981 553.808 744.345C559.359 744.709 564.677 746.711 569.09 750.097C573.503 753.483 576.813 758.102 578.601 763.37C580.389 768.637 580.575 774.316 579.135 779.689C577.197 786.89 572.482 793.027 566.024 796.755C559.567 800.484 551.894 801.498 544.689 799.577ZM600.799 843.728C600.319 845.519 599.319 847.128 597.924 848.35C596.53 849.573 594.805 850.355 592.967 850.597C591.128 850.839 589.26 850.53 587.597 849.71C585.934 848.89 584.551 847.595 583.624 845.989C582.697 844.384 582.267 842.539 582.388 840.689C582.509 838.839 583.177 837.066 584.305 835.595C585.434 834.124 586.974 833.02 588.73 832.424C590.485 831.828 592.379 831.766 594.17 832.246C596.57 832.892 598.616 834.464 599.859 836.616C601.102 838.769 601.44 841.327 600.799 843.728ZM621.986 800.877C620.195 800.397 618.587 799.397 617.364 798.003C616.142 796.609 615.36 794.883 615.118 793.045C614.876 791.207 615.185 789.338 616.005 787.675C616.825 786.012 618.12 784.63 619.725 783.702C621.331 782.775 623.176 782.345 625.026 782.467C626.876 782.588 628.649 783.255 630.12 784.384C631.591 785.513 632.694 787.052 633.29 788.808C633.886 790.564 633.948 792.457 633.468 794.248C632.823 796.648 631.251 798.694 629.098 799.937C626.946 801.18 624.388 801.518 621.986 800.877Z"
                    fill="#9CB4F2" />
            </g>
            <path
                d="M2525.87 706.125C2521.73 706.137 2517.71 707.525 2514.43 710.069C2511.16 712.614 2508.82 716.173 2507.79 720.187H2488.05C2487.17 713.227 2484.36 706.652 2479.94 701.21C2475.51 695.768 2469.65 691.676 2463.01 689.402C2456.38 687.127 2449.24 686.76 2442.4 688.343C2435.57 689.926 2429.31 693.394 2424.35 698.354C2419.39 703.315 2415.93 709.567 2414.34 716.401C2412.76 723.235 2413.13 730.376 2415.4 737.012C2417.68 743.647 2421.77 749.512 2427.21 753.937C2432.65 758.363 2439.23 761.173 2446.19 762.047V781.791C2441.77 782.932 2437.92 785.645 2435.36 789.422C2432.8 793.199 2431.7 797.781 2432.27 802.308C2432.85 806.835 2435.06 810.997 2438.48 814.014C2441.9 817.031 2446.31 818.695 2450.87 818.695C2455.44 818.695 2459.85 817.031 2463.27 814.014C2466.69 810.997 2468.9 806.835 2469.48 802.308C2470.05 797.781 2468.95 793.199 2466.39 789.422C2463.83 785.645 2459.98 782.932 2455.56 781.791V762.052C2462.23 761.213 2468.54 758.589 2473.83 754.458L2491.03 771.661C2489.31 774.519 2488.39 777.789 2488.37 781.125C2488.37 784.833 2489.47 788.459 2491.53 791.542C2493.6 794.625 2496.52 797.029 2499.95 798.448C2503.38 799.867 2507.15 800.238 2510.78 799.515C2514.42 798.791 2517.76 797.005 2520.38 794.383C2523.01 791.761 2524.79 788.42 2525.51 784.783C2526.24 781.146 2525.87 777.376 2524.45 773.95C2523.03 770.524 2520.63 767.595 2517.54 765.535C2514.46 763.475 2510.83 762.375 2507.12 762.375C2503.79 762.392 2500.52 763.311 2497.66 765.033L2480.46 747.83C2484.59 742.536 2487.22 736.225 2488.06 729.562H2507.8C2508.68 732.95 2510.49 736.021 2513.03 738.429C2515.57 740.836 2518.74 742.483 2522.17 743.182C2525.6 743.881 2529.16 743.605 2532.44 742.384C2535.72 741.162 2538.59 739.046 2540.73 736.274C2542.87 733.503 2544.18 730.187 2544.53 726.704C2544.88 723.221 2544.24 719.711 2542.7 716.571C2541.15 713.431 2538.75 710.787 2535.78 708.941C2532.81 707.094 2529.38 706.119 2525.87 706.125ZM2460.25 799.875C2460.25 801.729 2459.7 803.542 2458.67 805.083C2457.64 806.625 2456.18 807.827 2454.46 808.536C2452.75 809.246 2450.86 809.432 2449.05 809.07C2447.23 808.708 2445.56 807.815 2444.25 806.504C2442.93 805.193 2442.04 803.523 2441.68 801.704C2441.32 799.885 2441.5 798 2442.21 796.287C2442.92 794.574 2444.12 793.11 2445.67 792.08C2447.21 791.05 2449.02 790.5 2450.87 790.5C2453.36 790.502 2455.74 791.491 2457.5 793.249C2459.26 795.006 2460.25 797.389 2460.25 799.875ZM2450.87 753C2445.31 753 2439.87 751.35 2435.25 748.26C2430.62 745.17 2427.02 740.777 2424.89 735.638C2422.76 730.499 2422.21 724.844 2423.29 719.388C2424.38 713.932 2427.05 708.921 2430.99 704.988C2434.92 701.054 2439.93 698.376 2445.39 697.29C2450.84 696.205 2456.5 696.762 2461.64 698.891C2466.78 701.02 2471.17 704.624 2474.26 709.25C2477.35 713.875 2479 719.312 2479 724.875C2478.99 732.332 2476.03 739.48 2470.75 744.753C2465.48 750.025 2458.33 752.991 2450.87 753ZM2516.5 781.125C2516.5 782.979 2515.95 784.792 2514.92 786.333C2513.89 787.875 2512.43 789.077 2510.71 789.786C2509 790.496 2507.11 790.682 2505.3 790.32C2503.48 789.958 2501.81 789.065 2500.5 787.754C2499.18 786.443 2498.29 784.773 2497.93 782.954C2497.57 781.135 2497.75 779.25 2498.46 777.537C2499.17 775.824 2500.37 774.36 2501.92 773.33C2503.46 772.3 2505.27 771.75 2507.12 771.75C2509.61 771.752 2511.99 772.741 2513.75 774.499C2515.51 776.256 2516.5 778.639 2516.5 781.125ZM2525.87 734.25C2524.02 734.25 2522.21 733.7 2520.67 732.67C2519.12 731.64 2517.92 730.176 2517.21 728.463C2516.5 726.75 2516.32 724.865 2516.68 723.046C2517.04 721.227 2517.93 719.557 2519.25 718.246C2520.56 716.935 2522.23 716.042 2524.05 715.68C2525.86 715.318 2527.75 715.504 2529.46 716.214C2531.18 716.923 2532.64 718.125 2533.67 719.667C2534.7 721.208 2535.25 723.021 2535.25 724.875C2535.25 727.361 2534.26 729.744 2532.5 731.501C2530.74 733.259 2528.36 734.248 2525.87 734.25Z"
                fill="#9CB4F2" />
            <g clip-path="url(#clip4_53_362)">
                <path
                    d="M1916.09 505.132C1917.03 503.509 1916.92 501.822 1916.17 500.307L1897.13 467.663C1896.56 466.788 1896.15 466.554 1895.34 466.085C1894.53 465.616 1894.12 465.382 1893.07 465.319L1858.01 465.105L1840.3 434.85C1839.72 433.976 1839.32 433.741 1838.5 433.272C1837.69 432.804 1837.29 432.569 1836.24 432.507L1798.45 432.338C1796.76 432.447 1795.25 433.196 1794.31 434.82L1747.43 516.01C1746.03 518.446 1746.71 521.007 1749.15 522.413C1749.96 522.882 1750.6 522.71 1751.41 523.179L1786.47 523.393L1804.19 553.648C1804.77 554.522 1805.17 554.757 1805.98 555.226C1806.8 555.694 1807.2 555.929 1808.25 555.991L1843.31 556.206L1861.02 586.46C1861.19 587.101 1862 587.569 1862.82 588.038C1865.25 589.444 1867.81 588.758 1869.22 586.322L1916.09 505.132ZM1801.02 441.943L1828.12 441.889L1786.63 513.742L1759.54 513.796L1801.02 441.943ZM1808.25 541.921L1794.75 518.43L1836.24 446.577L1849.74 470.068L1808.25 541.921ZM1843.47 546.555L1816.37 546.609L1857.86 474.756L1884.95 474.702L1843.47 546.555ZM1851.58 551.242L1893.07 479.389L1906.57 502.881L1865.08 574.734L1851.58 551.242Z"
                    fill="#9CB4F2" />
            </g>
            <g clip-path="url(#clip5_53_362)">
                <path
                    d="M1038.27 429.831C1036.94 428.505 1035.28 428.173 1033.63 428.505L997.167 438.449C996.173 438.78 995.842 439.112 995.179 439.774C994.516 440.437 994.184 440.769 993.853 441.763L984.572 475.572L950.764 484.852C949.769 485.184 949.438 485.515 948.775 486.178C948.112 486.841 947.78 487.173 947.449 488.167L937.505 524.627C937.174 526.285 937.505 527.942 938.831 529.268L1005.12 595.559C1007.11 597.548 1009.76 597.548 1011.75 595.559C1012.41 594.896 1012.41 594.233 1013.08 593.57L1022.36 559.762L1056.17 550.481C1057.16 550.149 1057.49 549.818 1058.16 549.155C1058.82 548.492 1059.15 548.161 1059.48 547.166L1068.76 513.358L1102.57 504.077C1103.23 504.077 1103.9 503.414 1104.56 502.751C1106.55 500.762 1106.55 498.111 1104.56 496.122L1038.27 429.831ZM947.449 524.627L954.41 498.442L1013.08 557.11L1006.12 583.295L947.449 524.627ZM1045.89 543.52L1019.71 550.481L961.039 491.813L987.224 484.852L1045.89 543.52ZM1059.48 510.706L1052.52 536.891L993.853 478.223L1000.81 452.038L1059.48 510.706ZM1066.11 504.077L1007.44 445.409L1033.63 438.449L1092.3 497.116L1066.11 504.077Z"
                    fill="#9CB4F2" />
            </g>
            <path
                d="M1650 554.5C1649.99 558.701 1648.58 562.779 1646 566.095C1643.42 569.411 1639.82 571.778 1635.75 572.825V549.75H1645.25V540.25H1635.75V534.626C1638.92 533.505 1641.59 531.301 1643.29 528.401C1644.99 525.502 1645.61 522.094 1645.04 518.781C1644.48 515.468 1642.75 512.463 1640.18 510.296C1637.61 508.129 1634.36 506.941 1631 506.941C1627.64 506.941 1624.39 508.129 1621.82 510.296C1619.25 512.463 1617.52 515.468 1616.96 518.781C1616.39 522.094 1617.01 525.502 1618.71 528.401C1620.41 531.301 1623.08 533.505 1626.25 534.626V540.25H1616.75V549.75H1626.25V572.825C1622.18 571.778 1618.58 569.411 1616 566.095C1613.42 562.779 1612.01 558.701 1612 554.5H1602.5C1602.5 562.059 1605.5 569.308 1610.85 574.652C1616.19 579.997 1623.44 583 1631 583C1638.56 583 1645.81 579.997 1651.15 574.652C1656.5 569.308 1659.5 562.059 1659.5 554.5H1650ZM1631 516.5C1631.94 516.5 1632.86 516.779 1633.64 517.3C1634.42 517.822 1635.03 518.564 1635.39 519.432C1635.75 520.3 1635.84 521.255 1635.66 522.177C1635.48 523.098 1635.02 523.944 1634.36 524.609C1633.69 525.273 1632.85 525.725 1631.93 525.909C1631.01 526.092 1630.05 525.998 1629.18 525.638C1628.31 525.279 1627.57 524.67 1627.05 523.889C1626.53 523.108 1626.25 522.189 1626.25 521.25C1626.25 519.99 1626.75 518.782 1627.64 517.891C1628.53 517 1629.74 516.5 1631 516.5Z"
                fill="#9CB4F2" />
            <path
                d="M1697.5 535.5H1687.14C1685.16 523.852 1679.6 513.108 1671.25 504.753C1662.89 496.397 1652.15 490.842 1640.5 488.855V478.5H1621.5V488.855C1609.85 490.842 1599.11 496.397 1590.75 504.753C1582.4 513.108 1576.84 523.852 1574.85 535.5H1564.5V554.5H1574.85C1576.84 566.148 1582.4 576.892 1590.75 585.247C1599.11 593.603 1609.85 599.158 1621.5 601.145V611.5H1640.5V601.145C1652.15 599.158 1662.89 593.603 1671.25 585.247C1679.6 576.892 1685.16 566.148 1687.14 554.5H1697.5V535.5ZM1631 592.5C1621.61 592.5 1612.42 589.714 1604.61 584.495C1596.8 579.275 1590.71 571.857 1587.12 563.177C1583.52 554.498 1582.58 544.947 1584.41 535.733C1586.25 526.519 1590.77 518.055 1597.41 511.412C1604.06 504.769 1612.52 500.245 1621.73 498.413C1630.95 496.58 1640.5 497.521 1649.18 501.116C1657.86 504.711 1665.28 510.799 1670.49 518.61C1675.71 526.422 1678.5 535.605 1678.5 545C1678.49 557.594 1673.48 569.667 1664.57 578.572C1655.67 587.477 1643.59 592.486 1631 592.5Z"
                fill="#9CB4F2" />
            <path
                d="M844 806.5C843.988 810.701 842.582 814.779 840.003 818.095C837.424 821.411 833.818 823.778 829.75 824.825V801.75H839.25V792.25H829.75V786.626C832.919 785.505 835.59 783.301 837.291 780.401C838.992 777.502 839.613 774.094 839.045 770.781C838.476 767.468 836.755 764.463 834.185 762.296C831.615 760.129 828.362 758.941 825 758.941C821.638 758.941 818.385 760.129 815.815 762.296C813.245 764.463 811.524 767.468 810.955 770.781C810.387 774.094 811.008 777.502 812.709 780.401C814.41 783.301 817.081 785.505 820.25 786.626V792.25H810.75V801.75H820.25V824.825C816.182 823.778 812.576 821.411 809.997 818.095C807.418 814.779 806.012 810.701 806 806.5H796.5C796.5 814.059 799.503 821.308 804.847 826.652C810.192 831.997 817.441 835 825 835C832.559 835 839.808 831.997 845.153 826.652C850.497 821.308 853.5 814.059 853.5 806.5H844ZM825 768.5C825.939 768.5 826.858 768.779 827.639 769.3C828.42 769.822 829.029 770.564 829.388 771.432C829.748 772.3 829.842 773.255 829.659 774.177C829.475 775.098 829.023 775.944 828.359 776.609C827.694 777.273 826.848 777.725 825.927 777.909C825.005 778.092 824.05 777.998 823.182 777.638C822.314 777.279 821.572 776.67 821.051 775.889C820.529 775.108 820.25 774.189 820.25 773.25C820.25 771.99 820.75 770.782 821.641 769.891C822.532 769 823.74 768.5 825 768.5Z"
                fill="#9CB4F2" />
            <path
                d="M891.5 787.5H881.145C879.158 775.852 873.603 765.108 865.247 756.753C856.892 748.397 846.148 742.842 834.5 740.855V730.5H815.5V740.855C803.852 742.842 793.108 748.397 784.753 756.753C776.397 765.108 770.842 775.852 768.855 787.5H758.5V806.5H768.855C770.842 818.148 776.397 828.892 784.753 837.247C793.108 845.603 803.852 851.158 815.5 853.145V863.5H834.5V853.145C846.148 851.158 856.892 845.603 865.247 837.247C873.603 828.892 879.158 818.148 881.145 806.5H891.5V787.5ZM825 844.5C815.605 844.5 806.422 841.714 798.61 836.495C790.799 831.275 784.711 823.857 781.116 815.177C777.521 806.498 776.58 796.947 778.413 787.733C780.245 778.519 784.769 770.055 791.412 763.412C798.055 756.769 806.519 752.245 815.733 750.413C824.947 748.58 834.498 749.521 843.177 753.116C851.857 756.711 859.275 762.799 864.495 770.61C869.714 778.422 872.5 787.605 872.5 797C872.486 809.594 867.477 821.667 858.572 830.572C849.667 839.477 837.594 844.486 825 844.5Z"
                fill="#9CB4F2" />
            <g clip-path="url(#clip6_53_362)">
                <path
                    d="M1587.71 440.321L1547.79 463.368L1543.15 455.327L1574.98 436.91L1556.62 405.044L1564.66 400.402L1587.71 440.321ZM1452.78 404.167L1492.7 381.12L1497.34 389.16L1465.51 407.577L1483.87 439.443L1475.83 444.086L1452.78 404.167ZM1492.71 460.585L1539.67 379.244L1547.74 383.898L1500.78 465.234L1492.71 460.585Z"
                    fill="#9CB4F2" />
            </g>
            <g clip-path="url(#clip7_53_362)">
                <path
                    d="M644.282 727.69L656.213 683.166L665.181 685.57L655.694 721.102L691.209 730.652L688.806 739.62L644.282 727.69ZM765.255 657.847L753.325 702.37L744.357 699.967L753.844 664.435L718.328 654.885L720.731 645.916L765.255 657.847ZM697.125 646.19L721.437 736.911L712.443 739.324L688.133 648.607L697.125 646.19Z"
                    fill="#9CB4F2" />
            </g>
            <g clip-path="url(#clip8_53_362)">
                <path
                    d="M330.552 584.662L298.857 593.154L296.431 584.099L328.125 575.606L330.552 584.662ZM324.486 562.023L292.791 570.516L290.365 561.46L322.059 552.967L324.486 562.023ZM318.42 539.384L286.725 547.877L284.299 538.821L315.993 530.329L318.42 539.384ZM389.413 568.89L357.718 577.383L355.292 568.327L386.986 559.835L389.413 568.89ZM383.347 546.251L351.652 554.744L349.226 545.688L380.92 537.196L383.347 546.251ZM377.281 523.612L345.586 532.105L343.16 523.049L374.854 514.557L377.281 523.612Z"
                    fill="#9CB4F2" />
                <path
                    d="M295.868 618.22L404.535 589.103C406.935 588.457 408.981 586.885 410.224 584.733C411.467 582.58 411.805 580.022 411.164 577.621L389.326 496.121C388.68 493.72 387.108 491.674 384.956 490.432C382.803 489.189 380.245 488.851 377.844 489.492L269.177 518.609C266.777 519.254 264.731 520.826 263.488 522.979C262.245 525.131 261.907 527.689 262.548 530.091L284.386 611.591C285.032 613.991 286.603 616.037 288.756 617.28C290.909 618.523 293.466 618.861 295.868 618.22ZM402.108 580.047L352.303 593.393L330.465 511.893L380.27 498.547L402.108 580.047ZM321.409 514.319L343.247 595.819L293.441 609.164L271.604 527.664L321.409 514.319Z"
                    fill="#9CB4F2" />
            </g>
            <g clip-path="url(#clip9_53_362)">
                <path
                    d="M453.091 386.258C459.489 384.737 466.195 385.147 472.359 387.437C478.524 389.727 483.871 393.794 487.724 399.123C491.578 404.452 493.765 410.804 494.008 417.376C494.251 423.947 492.541 430.444 489.092 436.043C485.643 441.642 480.612 446.093 474.633 448.833C468.655 451.573 461.998 452.478 455.505 451.435C449.012 450.392 442.975 447.446 438.156 442.972C433.337 438.497 429.953 432.694 428.432 426.296C426.393 417.716 427.845 408.678 432.47 401.169C437.094 393.661 444.512 388.297 453.091 386.258ZM450.894 377.015C442.668 378.97 435.207 383.321 429.454 389.517C423.7 395.713 419.914 403.476 418.572 411.824C417.231 420.172 418.395 428.73 421.917 436.417C425.44 444.103 431.163 450.572 438.362 455.006C445.561 459.44 453.914 461.64 462.363 461.327C470.812 461.014 478.979 458.203 485.831 453.248C492.682 448.294 497.911 441.419 500.855 433.493C503.799 425.567 504.327 416.946 502.372 408.72C499.75 397.689 492.853 388.152 483.199 382.206C473.546 376.26 461.925 374.393 450.894 377.015Z"
                    fill="#9CB4F2" />
                <path
                    d="M525.478 403.227C523.464 394.73 519.791 386.715 514.671 379.641C509.55 372.568 503.082 366.576 495.638 362.01L490.654 370.103C503.504 378.013 512.691 390.699 516.198 405.375C519.706 420.052 517.248 435.52 509.363 448.386C501.479 461.252 488.812 470.465 474.143 474.002C459.473 477.54 444 475.113 431.118 467.255L430.901 467.121L425.919 475.208C433.348 479.8 441.61 482.88 450.232 484.269C458.853 485.658 467.665 485.33 476.159 483.303L479.455 497.167L460.97 501.561L463.167 510.804L509.379 499.819L507.182 490.576L488.697 494.97L485.226 480.367C500.077 474.481 512.315 463.45 519.705 449.287C527.096 435.124 529.145 418.776 525.478 403.227Z"
                    fill="#9CB4F2" />
            </g>
            <g clip-path="url(#clip10_53_362)">
                <path
                    d="M48.0907 651.704C53.7859 654.992 58.3781 659.896 61.2867 665.794C64.1953 671.692 65.2896 678.32 64.4313 684.84C63.5729 691.36 60.8004 697.479 56.4644 702.423C52.1284 707.367 46.4236 710.915 40.0714 712.617C33.7193 714.319 27.0051 714.099 20.7779 711.985C14.5506 709.871 9.09007 705.958 5.08671 700.741C1.08336 695.524 -1.28299 689.236 -1.71309 682.674C-2.1432 676.112 -0.617742 669.57 2.67037 663.875C7.0796 656.238 14.342 650.665 22.86 648.383C31.378 646.1 40.4537 647.295 48.0907 651.704ZM52.8407 643.477C45.5183 639.249 37.1068 637.288 28.6697 637.841C20.2327 638.394 12.1491 641.437 5.44117 646.584C-1.26676 651.731 -6.29773 658.752 -9.01554 666.758C-11.7334 674.765 -12.016 683.397 -9.82761 691.564C-7.63926 699.731 -3.07824 707.066 3.27868 712.641C9.6356 718.216 17.5029 721.78 25.8857 722.884C34.2685 723.988 42.7904 722.581 50.3736 718.841C57.9568 715.101 64.2607 709.197 68.4883 701.875C74.1573 692.056 75.6935 680.387 72.759 669.435C69.8246 658.483 62.6597 649.146 52.8407 643.477Z"
                    fill="#9CB4F2" />
                <path
                    d="M89.0563 713.75C93.4275 706.19 96.2621 697.841 97.3972 689.183C98.5323 680.524 97.9455 671.727 95.6705 663.296L86.4891 665.756C90.3977 680.331 88.3645 695.861 80.8356 708.938C73.3068 722.016 60.8973 731.572 46.3305 735.51C31.7637 739.448 16.2295 737.447 3.13693 729.944C-9.95567 722.442 -19.5371 710.052 -23.5048 695.493L-23.5709 695.247L-32.7458 697.705C-30.4996 706.144 -26.608 714.056 -21.2946 720.987C-15.9813 727.918 -9.35092 733.73 -1.78442 738.09L-8.90942 750.431L-25.3639 740.931L-30.1139 749.159L11.0223 772.909L15.7723 764.681L-0.682183 755.181L6.82282 742.182C21.6602 748.102 38.1321 748.487 53.23 743.267C68.3278 738.047 81.0441 727.57 89.0563 713.75Z"
                    fill="#9CB4F2" />
            </g>
            <g clip-path="url(#clip11_53_362)">
                <path
                    d="M405.892 734.339C406.967 738.4 406.665 742.703 405.032 746.574C403.4 750.445 400.529 753.664 396.871 755.729L390.898 733.439L400.075 730.981L397.616 721.804L388.439 724.263L386.984 718.831C389.755 716.928 391.765 714.107 392.657 710.866C393.55 707.625 393.268 704.173 391.861 701.12C390.454 698.067 388.014 695.61 384.971 694.182C381.927 692.754 378.477 692.448 375.23 693.318C371.983 694.189 369.148 696.178 367.227 698.936C365.305 701.694 364.42 705.043 364.729 708.39C365.037 711.738 366.519 714.868 368.912 717.229C371.306 719.589 374.456 721.028 377.808 721.29L379.263 726.722L370.087 729.181L372.546 738.357L381.722 735.898L387.694 758.187C383.494 758.229 379.398 756.876 376.049 754.34C372.7 751.804 370.286 748.229 369.187 744.175L360.011 746.633C361.967 753.934 366.743 760.159 373.289 763.939C379.835 767.718 387.615 768.742 394.916 766.786C402.217 764.83 408.442 760.053 412.221 753.507C416.001 746.961 417.025 739.182 415.068 731.881L405.892 734.339ZM377.704 702.552C378.612 702.309 379.571 702.34 380.461 702.642C381.35 702.944 382.13 703.503 382.702 704.248C383.274 704.994 383.612 705.892 383.674 706.829C383.735 707.767 383.517 708.701 383.047 709.515C382.578 710.329 381.877 710.985 381.035 711.4C380.192 711.816 379.245 711.972 378.314 711.849C377.382 711.727 376.508 711.331 375.802 710.711C375.096 710.092 374.589 709.277 374.346 708.369C374.02 707.152 374.19 705.856 374.82 704.765C375.45 703.674 376.488 702.878 377.704 702.552Z"
                    fill="#9CB4F2" />
                <path
                    d="M446.856 703.692L436.854 706.373C431.919 695.636 423.773 686.696 413.54 680.788C403.306 674.879 391.491 672.294 379.725 673.39L377.045 663.387L358.693 668.305L361.373 678.307C350.636 683.241 341.696 691.388 335.788 701.621C329.88 711.854 327.295 723.67 328.39 735.435L318.388 738.115L323.305 756.468L333.307 753.788C338.242 764.525 346.388 773.465 356.621 779.373C366.855 785.281 378.67 787.866 390.436 786.771L393.116 796.773L411.468 791.856L408.788 781.853C419.525 776.919 428.465 768.773 434.373 758.539C440.281 748.306 442.866 736.491 441.771 724.725L451.773 722.045L446.856 703.692ZM397.374 775.962C388.3 778.393 378.708 778.079 369.812 775.059C360.916 772.04 353.115 766.45 347.396 758.996C341.677 751.543 338.297 742.561 337.682 733.187C337.068 723.812 339.247 714.466 343.944 706.33C348.642 698.194 355.646 691.634 364.072 687.479C372.498 683.324 381.966 681.76 391.281 682.987C400.595 684.213 409.336 688.174 416.399 694.368C423.463 700.562 428.531 708.712 430.962 717.786C434.208 729.954 432.495 742.913 426.198 753.819C419.901 764.726 409.535 772.689 397.374 775.962Z"
                    fill="#9CB4F2" />
            </g>
            <g clip-path="url(#clip12_53_362)">
                <path
                    d="M1345.77 744.606C1340.55 746.012 1335.05 746.1 1329.78 744.863C1324.51 743.625 1319.63 741.101 1315.57 737.515L1321.77 730.482C1324.67 733.042 1328.16 734.845 1331.92 735.73C1335.69 736.615 1339.61 736.554 1343.35 735.553C1347.09 734.552 1350.52 732.642 1353.33 729.993C1356.15 727.343 1358.27 724.038 1359.5 720.371L1368.39 723.362C1366.67 728.496 1363.7 733.123 1359.76 736.83C1355.81 740.538 1351.01 743.209 1345.77 744.606ZM1350.54 689.947C1348.75 690.427 1347.14 691.428 1345.92 692.822C1344.7 694.216 1343.91 695.941 1343.67 697.779C1343.43 699.618 1343.74 701.486 1344.56 703.149C1345.38 704.812 1346.67 706.195 1348.28 707.122C1349.89 708.049 1351.73 708.479 1353.58 708.358C1355.43 708.237 1357.2 707.569 1358.67 706.441C1360.15 705.312 1361.25 703.772 1361.84 702.016C1362.44 700.261 1362.5 698.368 1362.02 696.577C1361.72 695.381 1361.17 694.258 1360.43 693.275C1359.68 692.292 1358.74 691.467 1357.67 690.85C1356.61 690.232 1355.42 689.835 1354.2 689.68C1352.97 689.525 1351.73 689.616 1350.54 689.947ZM1314.32 699.653C1312.53 700.133 1310.92 701.133 1309.7 702.527C1308.47 703.921 1307.69 705.647 1307.45 707.485C1307.21 709.323 1307.52 711.192 1308.34 712.855C1309.16 714.518 1310.45 715.901 1312.06 716.828C1313.66 717.755 1315.51 718.185 1317.36 718.064C1319.21 717.942 1320.98 717.275 1322.45 716.146C1323.92 715.018 1325.03 713.478 1325.62 711.722C1326.22 709.966 1326.28 708.073 1325.8 706.282C1325.49 705.086 1324.95 703.964 1324.2 702.981C1323.46 701.997 1322.52 701.173 1321.45 700.555C1320.38 699.938 1319.2 699.54 1317.98 699.385C1316.75 699.23 1315.51 699.321 1314.32 699.653Z"
                    fill="#9CB4F2" />
                <path
                    d="M1398.24 686.871L1395.82 677.815L1386.76 680.241L1381.91 662.13C1380.62 657.33 1377.47 653.239 1373.17 650.754C1368.86 648.268 1363.75 647.591 1358.95 648.872L1349.89 651.298L1345.04 633.187L1335.98 635.614L1340.83 653.725L1304.61 663.431L1299.76 645.32L1290.7 647.746L1295.56 665.857L1286.5 668.283C1281.7 669.576 1277.61 672.72 1275.12 677.024C1272.64 681.329 1271.96 686.444 1273.24 691.247L1278.1 709.359L1269.04 711.785L1271.47 720.841L1280.52 718.414L1286.59 741.053L1277.53 743.479L1279.96 752.535L1289.01 750.109L1292.65 763.692C1293.95 768.492 1297.09 772.583 1301.4 775.069C1305.7 777.554 1310.82 778.231 1315.62 776.95L1388.06 757.539C1392.86 756.246 1396.95 753.103 1399.44 748.798C1401.93 744.493 1402.6 739.378 1401.32 734.575L1397.68 720.991L1406.74 718.565L1404.31 709.509L1395.26 711.936L1389.19 689.297L1398.24 686.871ZM1392.27 737.001C1392.91 739.403 1392.57 741.961 1391.33 744.113C1390.08 746.266 1388.04 747.837 1385.64 748.483L1313.19 767.895C1310.79 768.536 1308.23 768.197 1306.08 766.955C1303.93 765.712 1302.36 763.666 1301.71 761.265L1282.3 688.821C1281.66 686.419 1282 683.862 1283.24 681.709C1284.48 679.556 1286.53 677.985 1288.93 677.339L1361.37 657.928C1363.77 657.287 1366.33 657.625 1368.48 658.868C1370.64 660.11 1372.21 662.156 1372.85 664.557L1392.27 737.001Z"
                    fill="#9CB4F2" />
            </g>
            <g clip-path="url(#clip13_53_362)">
                <path
                    d="M643.358 521.987C638.667 519.284 634.718 515.46 631.866 510.858C629.013 506.256 627.346 501.018 627.013 495.614L636.37 495.025C636.61 498.886 637.801 502.627 639.838 505.915C641.875 509.204 644.694 511.937 648.044 513.871C651.394 515.805 655.171 516.88 659.037 517C662.903 517.12 666.739 516.281 670.202 514.558L674.371 522.956C669.524 525.37 664.154 526.545 658.743 526.375C653.331 526.206 648.045 524.699 643.358 521.987ZM685.377 486.708C683.772 485.781 681.927 485.351 680.077 485.472C678.227 485.593 676.454 486.26 674.983 487.389C673.512 488.518 672.408 490.058 671.812 491.813C671.216 493.569 671.154 495.462 671.634 497.253C672.114 499.044 673.114 500.653 674.509 501.875C675.903 503.098 677.628 503.88 679.466 504.122C681.305 504.364 683.173 504.055 684.836 503.235C686.499 502.415 687.882 501.12 688.809 499.514C689.437 498.451 689.847 497.274 690.014 496.051C690.182 494.827 690.103 493.583 689.784 492.39C689.464 491.198 688.91 490.081 688.153 489.105C687.397 488.129 686.453 487.314 685.377 486.708ZM652.901 467.958C651.296 467.031 649.451 466.601 647.601 466.722C645.751 466.843 643.978 467.51 642.507 468.639C641.036 469.768 639.933 471.308 639.336 473.063C638.74 474.819 638.679 476.712 639.158 478.503C639.638 480.294 640.639 481.903 642.033 483.125C643.427 484.348 645.152 485.13 646.99 485.372C648.829 485.614 650.697 485.305 652.36 484.485C654.023 483.665 655.406 482.37 656.333 480.764C656.961 479.701 657.371 478.524 657.538 477.301C657.706 476.077 657.627 474.833 657.308 473.64C656.988 472.448 656.434 471.331 655.677 470.355C654.921 469.379 653.977 468.564 652.901 467.958Z"
                    fill="#9CB4F2" />
                <path
                    d="M721.285 518.265L725.972 510.146L717.853 505.458L727.228 489.22C729.708 484.912 730.379 479.796 729.092 474.995C727.805 470.193 724.667 466.098 720.365 463.607L712.246 458.92L721.621 442.682L713.502 437.994L704.127 454.232L671.651 435.482L681.026 419.244L672.907 414.557L663.532 430.795L655.413 426.107C651.105 423.627 645.99 422.957 641.188 424.243C636.386 425.53 632.291 428.668 629.8 432.97L620.425 449.208L612.306 444.521L607.619 452.64L615.738 457.327L604.019 477.625L595.9 472.937L591.213 481.056L599.332 485.744L592.3 497.922C589.82 502.23 589.15 507.346 590.437 512.147C591.723 516.949 594.862 521.044 599.163 523.535L664.115 561.035C668.423 563.515 673.539 564.185 678.341 562.899C683.142 561.612 687.237 558.474 689.728 554.172L696.759 541.994L704.878 546.681L709.566 538.562L701.447 533.875L713.166 513.577L721.285 518.265ZM681.609 549.484C680.364 551.636 678.317 553.205 675.916 553.849C673.515 554.492 670.957 554.157 668.803 552.916L603.851 515.416C601.699 514.171 600.13 512.123 599.487 509.722C598.843 507.321 599.179 504.763 600.419 502.609L637.919 437.658C639.164 435.506 641.212 433.937 643.613 433.293C646.014 432.65 648.572 432.985 650.726 434.226L715.678 471.726C717.829 472.971 719.399 475.019 720.042 477.42C720.685 479.821 720.35 482.379 719.109 484.533L681.609 549.484Z"
                    fill="#9CB4F2" />
            </g>
            <g clip-path="url(#clip14_53_362)">
                <path
                    d="M2185.36 655.987C2180.67 653.284 2176.72 649.46 2173.87 644.858C2171.01 640.256 2169.35 635.018 2169.01 629.614L2178.37 629.025C2178.61 632.886 2179.8 636.627 2181.84 639.915C2183.88 643.204 2186.69 645.937 2190.04 647.871C2193.39 649.805 2197.17 650.88 2201.04 651C2204.9 651.12 2208.74 650.281 2212.2 648.558L2216.37 656.956C2211.52 659.37 2206.15 660.545 2200.74 660.375C2195.33 660.206 2190.04 658.699 2185.36 655.987ZM2227.38 620.708C2225.77 619.781 2223.93 619.351 2222.08 619.472C2220.23 619.593 2218.45 620.26 2216.98 621.389C2215.51 622.518 2214.41 624.058 2213.81 625.813C2213.22 627.569 2213.15 629.462 2213.63 631.253C2214.11 633.044 2215.11 634.653 2216.51 635.875C2217.9 637.098 2219.63 637.88 2221.47 638.122C2223.3 638.364 2225.17 638.055 2226.84 637.235C2228.5 636.415 2229.88 635.12 2230.81 633.514C2231.44 632.451 2231.85 631.274 2232.01 630.051C2232.18 628.827 2232.1 627.583 2231.78 626.39C2231.46 625.198 2230.91 624.081 2230.15 623.105C2229.4 622.129 2228.45 621.314 2227.38 620.708ZM2194.9 601.958C2193.3 601.031 2191.45 600.601 2189.6 600.722C2187.75 600.843 2185.98 601.51 2184.51 602.639C2183.04 603.768 2181.93 605.308 2181.34 607.063C2180.74 608.819 2180.68 610.712 2181.16 612.503C2181.64 614.294 2182.64 615.903 2184.03 617.125C2185.43 618.348 2187.15 619.13 2188.99 619.372C2190.83 619.614 2192.7 619.305 2194.36 618.485C2196.02 617.665 2197.41 616.37 2198.33 614.764C2198.96 613.701 2199.37 612.524 2199.54 611.301C2199.71 610.077 2199.63 608.833 2199.31 607.64C2198.99 606.448 2198.43 605.331 2197.68 604.355C2196.92 603.379 2195.98 602.564 2194.9 601.958Z"
                    fill="#9CB4F2" />
                <path
                    d="M2263.28 652.265L2267.97 644.146L2259.85 639.458L2269.23 623.22C2271.71 618.912 2272.38 613.796 2271.09 608.995C2269.81 604.193 2266.67 600.098 2262.37 597.607L2254.25 592.92L2263.62 576.682L2255.5 571.994L2246.13 588.232L2213.65 569.482L2223.03 553.244L2214.91 548.557L2205.53 564.795L2197.41 560.107C2193.11 557.627 2187.99 556.957 2183.19 558.243C2178.39 559.53 2174.29 562.668 2171.8 566.97L2162.43 583.208L2154.31 578.521L2149.62 586.64L2157.74 591.327L2146.02 611.625L2137.9 606.937L2133.21 615.056L2141.33 619.744L2134.3 631.922C2131.82 636.23 2131.15 641.346 2132.44 646.147C2133.72 650.949 2136.86 655.044 2141.16 657.535L2206.12 695.035C2210.42 697.515 2215.54 698.185 2220.34 696.899C2225.14 695.612 2229.24 692.474 2231.73 688.172L2238.76 675.994L2246.88 680.681L2251.57 672.562L2243.45 667.875L2255.17 647.577L2263.28 652.265ZM2223.61 683.484C2222.36 685.636 2220.32 687.205 2217.92 687.849C2215.51 688.492 2212.96 688.157 2210.8 686.916L2145.85 649.416C2143.7 648.171 2142.13 646.123 2141.49 643.722C2140.84 641.321 2141.18 638.763 2142.42 636.609L2179.92 571.658C2181.16 569.506 2183.21 567.937 2185.61 567.293C2188.01 566.65 2190.57 566.985 2192.73 568.226L2257.68 605.726C2259.83 606.971 2261.4 609.019 2262.04 611.42C2262.69 613.821 2262.35 616.379 2261.11 618.533L2223.61 683.484Z"
                    fill="#9CB4F2" />
            </g>
            <path
                d="M247.579 402.063C242.801 400.973 237.898 400.537 233.003 400.765C230.062 400.84 227.119 400.725 224.194 400.423C224.755 393.804 222.974 387.199 219.162 381.76C215.349 376.322 209.747 372.395 203.334 370.666L200.892 379.782C204.836 380.853 208.325 383.178 210.832 386.405C213.34 389.633 214.73 393.588 214.793 397.674C212.436 396.557 210.126 395.343 207.869 394.036C203.541 391.359 198.894 389.236 194.037 387.716C177.072 383.17 162.8 394.319 156.773 416.813C147.601 451.043 160.66 476.472 178.581 481.279L178.59 481.281C182.56 482.122 186.648 482.242 190.66 481.633C193.101 481.239 195.59 481.229 198.034 481.606C200.344 482.503 202.499 483.756 204.42 485.32C207.589 487.853 211.188 489.794 215.045 491.049C232.959 495.844 256.992 480.354 266.164 446.124C270.671 429.305 268.505 407.67 247.579 402.063ZM217.487 481.933C214.732 480.938 212.165 479.484 209.895 477.632C207.087 475.371 203.897 473.63 200.477 472.49C196.95 471.769 193.323 471.684 189.767 472.239C186.869 472.705 183.913 472.679 181.024 472.163L181.033 472.165C167.588 468.558 158.245 447.784 165.889 419.255C168.092 411.033 175.008 392.388 191.594 396.832C195.679 398.163 199.587 399.986 203.232 402.261C207.391 404.825 211.842 406.882 216.49 408.388L218.728 408.988C223.426 410.009 228.236 410.418 233.038 410.203C237.096 409.998 241.164 410.326 245.137 411.178C263.446 416.084 258.272 439.114 257.048 443.681C249.404 472.21 230.925 485.529 217.487 481.933Z"
                fill="#9CB4F2" />
            <path
                d="M231.576 392.889L227.018 391.668L228.239 387.11C228.889 384.694 230.471 382.634 232.638 381.383C234.805 380.132 237.38 379.792 239.798 380.437L244.356 381.658L243.134 386.216C242.484 388.632 240.902 390.692 238.735 391.943C236.568 393.194 233.994 393.535 231.576 392.889Z"
                fill="#9CB4F2" />
            <path
                d="M1271.04 423.947C1266.36 425.392 1261.89 427.466 1257.77 430.112C1255.26 431.646 1252.65 433.018 1249.97 434.219C1247.14 428.207 1242.3 423.377 1236.28 420.573C1230.26 417.769 1223.44 417.17 1217.02 418.879L1219.47 427.995C1223.42 426.951 1227.6 427.219 1231.39 428.76C1235.17 430.302 1238.35 433.032 1240.45 436.539C1237.85 436.75 1235.24 436.854 1232.63 436.85C1227.55 436.696 1222.46 437.181 1217.5 438.293C1200.53 442.839 1193.75 459.63 1199.77 482.124C1208.94 516.354 1232.97 531.847 1250.89 527.049L1250.9 527.046C1254.76 525.79 1258.36 523.849 1261.53 521.316C1263.45 519.754 1265.6 518.502 1267.9 517.606C1270.35 517.228 1272.84 517.236 1275.29 517.629C1279.3 518.238 1283.39 518.12 1287.36 517.278C1305.27 512.474 1318.34 487.043 1309.16 452.813C1304.66 435.994 1291.96 418.34 1271.04 423.947ZM1284.91 508.163C1282.03 508.678 1279.08 508.702 1276.19 508.234C1272.62 507.68 1268.99 507.766 1265.46 508.49C1262.05 509.629 1258.86 511.368 1256.06 513.627C1253.78 515.48 1251.21 516.936 1248.45 517.933L1248.46 517.931C1235.01 521.529 1216.53 508.209 1208.89 479.681C1206.69 471.459 1203.35 451.853 1219.94 447.409C1224.14 446.52 1228.44 446.145 1232.73 446.292C1237.62 446.433 1242.5 445.988 1247.28 444.969L1249.51 444.369C1254.09 442.905 1258.46 440.854 1262.52 438.267C1265.93 436.06 1269.61 434.311 1273.48 433.062C1291.79 428.156 1298.82 450.688 1300.05 455.255C1307.69 483.783 1298.35 504.558 1284.91 508.163Z"
                fill="#9CB4F2" />
            <path
                d="M1252.59 424.004L1248.03 425.225L1246.81 420.667C1246.17 418.25 1246.51 415.675 1247.76 413.508C1249.01 411.341 1251.07 409.759 1253.49 409.109L1258.04 407.887L1259.27 412.445C1259.91 414.863 1259.57 417.438 1258.32 419.605C1257.07 421.772 1255.01 423.354 1252.59 424.004Z"
                fill="#9CB4F2" />
            <g clip-path="url(#clip15_53_362)">
                <path
                    d="M1951.88 608.808C1947.73 611.416 1943.95 614.575 1940.65 618.198C1938.62 620.33 1936.46 622.329 1934.18 624.184C1929.9 619.107 1923.97 615.696 1917.43 614.546C1910.88 613.396 1904.15 614.581 1898.39 617.893L1903.11 626.066C1906.65 624.035 1910.77 623.211 1914.82 623.72C1918.88 624.229 1922.66 626.043 1925.59 628.888C1923.13 629.765 1920.64 630.54 1918.12 631.211C1913.17 632.379 1908.38 634.163 1903.87 636.523C1888.66 645.305 1886.45 663.28 1898.1 683.447C1915.82 714.137 1943.03 722.884 1959.1 713.611L1959.11 713.606C1962.51 711.394 1965.49 708.588 1967.89 705.32C1969.34 703.315 1971.09 701.549 1973.09 700.087C1975.36 699.088 1977.77 698.45 1980.23 698.197C1984.26 697.748 1988.18 696.576 1991.79 694.736C2007.85 685.46 2013.89 657.512 1996.17 626.822C1987.47 611.743 1970.64 597.976 1951.88 608.808ZM1987.07 686.563C1984.42 687.807 1981.58 688.594 1978.67 688.89C1975.08 689.277 1971.59 690.301 1968.37 691.914C1965.37 693.898 1962.74 696.402 1960.62 699.309C1958.9 701.688 1956.79 703.76 1954.38 705.438L1954.39 705.433C1942.33 712.389 1921.04 704.306 1906.27 678.729C1902.01 671.356 1893.72 653.282 1908.59 644.696C1912.42 642.749 1916.47 641.275 1920.66 640.306C1925.41 639.178 1930.01 637.485 1934.37 635.264L1936.37 634.105C1940.42 631.506 1944.11 628.394 1947.35 624.846C1950.07 621.831 1953.18 619.187 1956.59 616.981C1973.01 607.503 1985.64 627.446 1988 631.541C2002.77 657.119 1999.12 679.603 1987.07 686.563Z"
                    fill="#9CB4F2" />
                <path
                    d="M1934.07 613.637L1929.99 615.996L1927.63 611.91C1926.38 609.742 1926.04 607.167 1926.69 604.75C1927.34 602.333 1928.92 600.271 1931.08 599.018L1935.17 596.659L1937.53 600.745C1938.78 602.913 1939.11 605.489 1938.47 607.906C1937.82 610.323 1936.24 612.384 1934.07 613.637Z"
                    fill="#9CB4F2" />
            </g>
            <path
                d="M903.409 415.714C908.47 415.075 913.105 418.672 913.744 423.733C914.382 428.795 910.785 433.43 905.724 434.068C900.663 434.707 896.028 431.11 895.389 426.049C894.751 420.988 898.347 416.352 903.409 415.714ZM902.251 406.537C897.383 407.151 892.958 409.673 889.951 413.55C886.943 417.426 885.598 422.339 886.212 427.207C886.826 432.075 889.349 436.499 893.225 439.507C897.102 442.515 902.014 443.86 906.882 443.246C911.75 442.631 916.175 440.109 919.182 436.232C922.19 432.356 923.535 427.443 922.921 422.576C922.307 417.708 919.784 413.283 915.908 410.275C912.031 407.267 907.119 405.922 902.251 406.537ZM851.197 408.316L845.527 415.623L858.891 425.992L820.548 430.829C819.268 428.271 817.227 426.173 814.706 424.821C812.185 423.47 809.307 422.932 806.469 423.282C798.879 424.239 793.482 431.195 794.439 438.784C795.397 446.374 802.352 451.771 809.942 450.814C812.779 450.447 815.432 449.212 817.539 447.277C819.645 445.341 821.101 442.802 821.706 440.006L860.048 435.169L849.679 448.532L856.986 454.202L877.035 428.364L851.197 408.316ZM808.784 441.636C807.596 441.733 806.417 441.367 805.491 440.615C804.566 439.864 803.967 438.784 803.817 437.601C803.668 436.419 803.981 435.224 804.69 434.266C805.4 433.308 806.452 432.661 807.626 432.459C808.815 432.363 809.994 432.729 810.919 433.48C811.844 434.232 812.444 435.312 812.593 436.494C812.742 437.677 812.43 438.872 811.72 439.829C811.011 440.787 809.959 441.435 808.784 441.636Z"
                fill="#9CB4F2" />
            <path
                d="M1454.41 801.714C1459.47 801.075 1464.11 804.672 1464.74 809.733C1465.38 814.795 1461.79 819.43 1456.72 820.068C1451.66 820.707 1447.03 817.11 1446.39 812.049C1445.75 806.988 1449.35 802.352 1454.41 801.714ZM1453.25 792.537C1448.38 793.151 1443.96 795.673 1440.95 799.55C1437.94 803.426 1436.6 808.339 1437.21 813.207C1437.83 818.075 1440.35 822.499 1444.23 825.507C1448.1 828.515 1453.01 829.86 1457.88 829.246C1462.75 828.631 1467.17 826.109 1470.18 822.232C1473.19 818.356 1474.54 813.443 1473.92 808.576C1473.31 803.708 1470.78 799.283 1466.91 796.275C1463.03 793.267 1458.12 791.922 1453.25 792.537ZM1402.2 794.316L1396.53 801.623L1409.89 811.992L1371.55 816.829C1370.27 814.271 1368.23 812.173 1365.71 810.821C1363.18 809.47 1360.31 808.932 1357.47 809.282C1349.88 810.239 1344.48 817.195 1345.44 824.784C1346.4 832.374 1353.35 837.771 1360.94 836.814C1363.78 836.447 1366.43 835.212 1368.54 833.277C1370.64 831.341 1372.1 828.802 1372.71 826.006L1411.05 821.169L1400.68 834.532L1407.99 840.202L1428.03 814.364L1402.2 794.316ZM1359.78 827.636C1358.6 827.733 1357.42 827.367 1356.49 826.615C1355.57 825.864 1354.97 824.784 1354.82 823.601C1354.67 822.419 1354.98 821.224 1355.69 820.266C1356.4 819.308 1357.45 818.661 1358.63 818.459C1359.81 818.363 1360.99 818.729 1361.92 819.48C1362.84 820.232 1363.44 821.312 1363.59 822.494C1363.74 823.677 1363.43 824.872 1362.72 825.829C1362.01 826.787 1360.96 827.435 1359.78 827.636Z"
                fill="#9CB4F2" />
            <path
                d="M9.86737 534.805C21.2584 542.044 34.7069 548.688 45.7016 548.688C48.1774 548.793 50.6488 548.394 52.9656 547.515C55.2823 546.635 57.3961 545.294 59.1783 543.572C69.9654 532.766 59.8389 513.382 50.0334 494.629L77.4068 467.256C82.2836 470.395 87.0255 473.739 91.6197 477.279L97.8438 470.116C93.4545 466.694 88.9336 463.445 84.2915 460.376L102.562 442.105L95.8902 435.438L76.0384 455.285C60.391 446.272 42.4975 439.968 32.4938 449.99C22.8675 459.631 29.889 476.094 38.4772 492.851L8.716 522.607C4.18198 519.481 -0.225682 516.175 -4.4965 512.698L-10.6875 519.828C-6.60939 523.175 -2.41498 526.378 1.88797 529.43L-20.125 551.448V435.438H-29.5625V558.125C-29.5625 560.628 -28.5682 563.028 -26.7983 564.798C-25.0284 566.568 -22.628 567.562 -20.125 567.562H102.562V558.125H-13.4574L9.86737 534.805ZM39.1661 456.677C44.5219 451.307 56.5924 455.327 69.0688 462.259L45.4987 485.824C39.3029 473.466 34.4096 461.443 39.1661 456.677ZM43.0402 501.627C50.4958 515.935 58.0552 531.337 52.5107 536.891C46.3197 543.091 31.1725 536.768 16.7803 527.887L43.0402 501.627Z"
                fill="#9CB4F2" />
            <g clip-path="url(#clip16_53_362)">
                <path
                    d="M2043.81 561.164L2030.14 557.5C2012.36 552.737 2002.02 534.821 2006.78 517.045L2011.67 498.813L2020.78 501.256L2015.9 519.488C2012.48 532.25 2019.82 544.964 2032.58 548.384L2046.25 552.048L2043.81 561.164ZM2096.07 584.935L2106.09 587.622L2098.56 531.867L2088.53 529.18L2054.13 573.699L2064.16 576.386L2070.25 568.247L2094.41 574.72L2096.07 584.935ZM2076.79 560.231L2090.37 542.374L2093.2 564.627L2076.79 560.231ZM2114.38 516.566L2105.27 514.123L2110.15 495.891C2113.57 483.129 2106.23 470.415 2093.47 466.995L2075.24 462.11L2077.68 452.994L2095.91 457.879C2113.69 462.642 2124.03 480.558 2119.27 498.334L2114.38 516.566ZM2062.79 453.888L2065.23 444.772L2042.44 438.666L2044.88 429.55L2035.77 427.107L2033.32 436.223L2010.53 430.116L2008.09 439.232L2045.47 449.247C2043.46 453.105 2038.77 459.665 2030.55 464.792C2028.67 460.869 2027.25 457.067 2026.61 453.966L2016.13 451.157C2016.73 456.204 2018.46 462.528 2021.67 468.763C2017.17 470.977 2010.97 472.246 2003.98 472.815L2004.85 482.33C2013.91 481.338 2021.27 479.401 2027.26 477.098C2031.17 482.544 2036.57 487.9 2044.05 492.833L2049.56 485.028C2043.79 481.039 2039.17 476.383 2035.8 472.549C2046.91 465.754 2052.2 456.915 2054.58 451.69L2062.79 453.888Z"
                    fill="#9CB4F2" />
            </g>
            <g clip-path="url(#clip17_53_362)">
                <path
                    d="M2233.51 841.637C2226.56 832 2221.54 820.974 2219.59 808.913C2213.03 768.535 2240.71 730.137 2281.09 723.585L2282.79 734.073C2248.18 739.689 2224.46 772.601 2230.07 807.211C2231.77 817.699 2235.93 826.712 2242.09 834.861L2233.51 841.637ZM2355.93 786.789C2361.54 821.399 2337.82 854.311 2303.21 859.927C2288 862.395 2272.99 859.448 2260.45 851.796L2285.49 817.056L2276.87 810.381L2248.32 849.997C2246.56 852.435 2247.07 855.582 2249.51 857.339C2265.36 868.761 2285.51 873.563 2304.91 870.415C2345.29 863.863 2372.97 825.466 2366.41 785.088L2355.93 786.789Z"
                    fill="#9CB4F2" />
                <path
                    d="M2311.15 842.493C2310.62 842.579 2309.57 842.749 2308.96 842.309C2307.31 842.04 2305.48 840.722 2305.14 838.625L2297.21 813.001L2307.44 809.726L2312.35 826.69L2322.44 815.904L2317.84 787.587C2317.59 786.014 2317.94 784.88 2318.82 783.661L2332.88 764.157C2336.83 758.672 2338.87 751.344 2337.77 744.527L2336.41 736.137L2328.54 737.413C2321.72 738.52 2315.33 742.248 2311.46 748.257L2297.4 767.761C2296.53 768.98 2295.56 769.674 2293.99 769.93L2265.15 774.61L2258.11 787.593L2275.75 786.882L2275.88 797.625L2249.06 798.209C2246.97 798.55 2245.14 797.232 2244.36 795.744C2243.58 794.255 2243.24 792.158 2244.03 790.415L2256.36 766.886C2257.76 765.582 2259.25 764.802 2260.82 764.547L2290.19 759.782L2303.37 741.498C2309.08 733.574 2317.92 728.372 2327.36 726.84L2335.23 725.564C2341 724.628 2346.48 728.582 2347.42 734.35L2348.69 742.216C2350.31 752.179 2348.09 761.69 2342.38 769.613L2329.2 787.897L2333.96 817.263C2334.22 818.836 2333.95 820.495 2332.55 821.799L2314.12 840.934C2313.16 841.629 2312.19 842.323 2311.15 842.493Z"
                    fill="#9CB4F2" />
            </g>
            <path
                d="M178.897 871.918L164.742 872.068C146.34 872.263 131.557 857.791 131.362 839.389L131.162 820.515L140.599 820.415L140.799 839.289C140.939 852.501 151.43 862.771 164.642 862.631L178.797 862.481L178.897 871.918ZM235.619 880.755L246 880.644L223.744 828.971L213.363 829.081L192.209 881.215L202.59 881.105L206.264 871.628L231.272 871.363L235.619 880.755ZM210.411 862.146L218.684 841.294L227.397 861.966L210.411 862.146ZM234.868 809.977L225.431 810.077L225.231 791.203C225.091 777.992 214.6 767.721 201.389 767.861L182.515 768.061L182.414 758.624L201.288 758.424C219.69 758.229 234.473 772.701 234.668 791.103L234.868 809.977ZM168.309 763.493L168.209 754.056L144.617 754.306L144.516 744.869L135.079 744.969L135.18 754.406L111.587 754.657L111.687 764.094L150.379 763.683C149.48 767.94 146.729 775.52 140.198 782.667C137.332 779.394 134.938 776.116 133.492 773.3L122.64 773.416C124.577 778.114 127.94 783.741 132.714 788.881C128.974 792.224 123.342 795.116 116.761 797.545L120.159 806.475C128.617 803.082 135.183 799.237 140.333 795.407C145.569 799.599 152.215 803.304 160.738 806.045L163.946 797.044C157.315 794.755 151.618 791.512 147.341 788.726C156.206 779.194 158.932 769.255 159.816 763.583L168.309 763.493Z"
                fill="#9CB4F2" />
            <g clip-path="url(#clip18_53_362)">
                <path
                    d="M1202.8 839.927L1211.56 848.643C1212.41 849.489 1213.55 849.977 1214.75 850.007C1215.95 850.038 1217.11 849.608 1218 848.807L1235.43 833.137L1229.16 826.165L1215.03 838.874L1206.2 830.077C1205.34 829.217 1204.17 828.727 1202.95 828.709C1201.74 828.692 1200.56 829.149 1199.67 829.983L1180.97 847.604L1188.13 811.371L1178.93 809.555L1169.85 855.541C1169.37 857.98 1169.88 860.51 1171.26 862.575C1172.64 864.64 1174.79 866.071 1177.23 866.555L1223.22 875.638L1225.03 866.44L1183.38 858.214L1202.8 839.927ZM1100.81 818.016L1165.19 830.731L1163.38 839.929L1098.99 827.213L1100.81 818.016ZM1096.27 841.009L1160.65 853.725L1158.83 862.922L1094.45 850.206L1096.27 841.009ZM1146.74 803.197L1151.28 780.203L1155.88 781.112C1160.76 782.069 1165.82 781.052 1169.95 778.285C1174.07 775.518 1176.94 771.226 1177.91 766.35L1180.63 752.554L1166.84 749.829C1162.13 748.907 1157.24 749.837 1153.2 752.425C1151.67 747.631 1148.89 743.334 1145.13 739.982C1141.38 736.63 1136.8 734.345 1131.86 733.366L1118.07 730.641L1115.34 744.437C1113.91 751.754 1115.43 759.342 1119.58 765.536C1123.73 771.73 1130.17 776.025 1137.48 777.479L1142.08 778.387L1137.54 801.38L1105.35 795.022L1103.54 804.22L1167.92 816.935L1169.73 807.738L1146.74 803.197ZM1165.02 759.027L1169.62 759.935L1168.71 764.534C1168.23 766.972 1166.79 769.118 1164.73 770.502C1162.66 771.886 1160.14 772.394 1157.7 771.914L1153.1 771.006L1154.01 766.407C1154.49 763.969 1155.92 761.823 1157.99 760.439C1160.05 759.056 1162.58 758.547 1165.02 759.027ZM1139.3 768.281C1134.43 767.312 1130.13 764.449 1127.37 760.319C1124.6 756.19 1123.58 751.132 1124.54 746.254L1125.45 741.655L1130.05 742.563C1134.92 743.532 1139.21 746.396 1141.98 750.525C1144.75 754.655 1145.77 759.713 1144.81 764.591L1143.9 769.19L1139.3 768.281Z"
                    fill="#9CB4F2" />
            </g>
            <g clip-path="url(#clip19_53_362)">
                <path
                    d="M2066.32 818.747C2079.32 822.371 2094.12 824.83 2104.64 821.641C2107.04 821.024 2109.29 819.926 2111.25 818.412C2113.21 816.899 2114.85 815.002 2116.05 812.838C2123.24 799.368 2107.93 783.753 2093.11 768.65L2111.37 734.515C2116.95 736.105 2122.45 737.93 2127.88 739.985L2131.76 731.325C2126.56 729.323 2121.29 727.525 2115.96 725.934L2128.15 703.149L2119.83 698.703L2106.59 723.454C2089 719.367 2070.05 718.522 2063.38 731.015C2056.96 743.033 2068.46 756.753 2081.53 770.299L2061.68 807.407C2056.44 805.73 2051.26 803.844 2046.16 801.755L2042.31 810.374C2047.18 812.395 2052.12 814.244 2057.12 815.917L2042.44 843.372L2008.8 732.347L1999.77 735.084L2035.35 852.499C2036.07 854.895 2037.72 856.904 2039.93 858.084C2042.13 859.265 2044.72 859.52 2047.12 858.795L2164.53 823.216L2161.79 814.184L2050.76 847.829L2066.32 818.747ZM2071.7 735.479C2075.27 728.787 2087.99 729.134 2101.94 732.15L2086.22 761.538C2076.7 751.508 2068.53 741.42 2071.7 735.479ZM2088.45 777.375C2099.73 788.906 2111.43 801.453 2107.74 808.377C2103.61 816.106 2087.28 814.447 2070.93 810.122L2088.45 777.375Z"
                    fill="#9CB4F2" />
            </g>
            <g clip-path="url(#clip20_53_362)">
                <path
                    d="M1667.46 797.396C1673.84 798.974 1679.62 802.409 1684.05 807.267C1688.48 812.126 1691.37 818.189 1692.36 824.691C1693.34 831.193 1692.38 837.841 1689.59 843.795C1686.8 849.749 1682.3 854.741 1676.67 858.14C1671.04 861.539 1664.53 863.192 1657.96 862.891C1651.39 862.589 1645.06 860.346 1639.76 856.446C1634.47 852.545 1630.45 847.162 1628.21 840.978C1625.98 834.793 1625.63 828.084 1627.21 821.7C1629.32 813.139 1634.75 805.769 1642.3 801.211C1649.85 796.653 1658.9 795.281 1667.46 797.396ZM1669.74 788.174C1661.53 786.145 1652.91 786.597 1644.95 789.471C1637 792.345 1630.08 797.512 1625.07 804.32C1620.05 811.127 1617.17 819.269 1616.78 827.715C1616.39 836.161 1618.52 844.533 1622.89 851.771C1627.26 859.009 1633.68 864.789 1641.33 868.38C1648.99 871.97 1657.53 873.21 1665.89 871.942C1674.25 870.675 1682.05 866.957 1688.3 861.259C1694.54 855.561 1698.96 848.138 1700.99 839.93C1703.71 828.923 1701.94 817.286 1696.08 807.58C1690.22 797.874 1680.75 790.893 1669.74 788.174Z"
                    fill="#9CB4F2" />
                <path
                    d="M1724.04 845.626C1726.14 837.15 1726.55 828.343 1725.23 819.709C1723.92 811.076 1720.91 802.788 1716.39 795.32L1708.25 800.233C1716.05 813.149 1718.41 828.633 1714.81 843.287C1711.21 857.941 1701.94 870.567 1689.04 878.395C1676.14 886.223 1660.66 888.614 1646 885.042C1631.34 881.47 1618.69 872.228 1610.84 859.344L1610.71 859.125L1602.58 864.034C1607.08 871.518 1613.01 878.038 1620.04 883.221C1627.07 888.404 1635.05 892.146 1643.53 894.234L1640.12 908.068L1621.67 903.511L1619.39 912.734L1665.51 924.127L1667.78 914.904L1649.34 910.347L1652.94 895.775C1668.84 897.342 1684.77 893.138 1697.82 883.931C1710.88 874.724 1720.18 861.128 1724.04 845.626Z"
                    fill="#9CB4F2" />
            </g>
            <g clip-path="url(#clip21_53_362)">
                <path
                    d="M1832.28 858.69L1844.21 814.166L1853.18 816.57L1843.69 852.102L1879.21 861.652L1876.81 870.62L1832.28 858.69ZM1953.26 788.847L1941.33 833.37L1932.36 830.967L1941.84 795.435L1906.33 785.885L1908.73 776.916L1953.26 788.847ZM1885.13 777.19L1909.44 867.911L1900.44 870.324L1876.13 779.607L1885.13 777.19Z"
                    fill="#9CB4F2" />
            </g>
        </mask>
        <g mask="url(#mask0_53_362)">
            <rect x="-19" y="304" width="2564" height="544" fill="url(#paint0_linear_53_362)" />
        </g>
    </g>
    <defs>
        <linearGradient id="paint0_linear_53_362" x1="1263" y1="304" x2="1263" y2="848" gradientUnits="userSpaceOnUse">
            <stop stop-color="#9CB4F2" stop-opacity="0" />
            <stop offset="1" stop-color="#9CB4F2" />
        </linearGradient>
        <clipPath id="clip0_53_362">
            <rect width="2515" height="831" fill="white" />
        </clipPath>
        <clipPath id="clip1_53_362">
            <rect width="150" height="150" fill="white" transform="translate(943.186 607.024) rotate(28.7559)" />
        </clipPath>
        <clipPath id="clip2_53_362">
            <rect width="150" height="150" fill="white" transform="translate(160.823 549) rotate(15)" />
        </clipPath>
        <clipPath id="clip3_53_362">
            <rect width="150" height="150" fill="white" transform="translate(518.823 715) rotate(15)" />
        </clipPath>
        <clipPath id="clip4_53_362">
            <rect width="150" height="150" fill="white" transform="translate(1809 400) rotate(30)" />
        </clipPath>
        <clipPath id="clip5_53_362">
            <rect width="150" height="150" fill="white" transform="translate(909 506.066) rotate(-45)" />
        </clipPath>
        <clipPath id="clip6_53_362">
            <rect width="149" height="149" fill="white" transform="translate(1467.56 331) rotate(15)" />
        </clipPath>
        <clipPath id="clip7_53_362">
            <rect width="149" height="149" fill="white" transform="translate(806.538 720.038) rotate(150)" />
        </clipPath>
        <clipPath id="clip8_53_362">
            <rect width="150" height="150" fill="white" transform="translate(428.712 606.889) rotate(165)" />
        </clipPath>
        <clipPath id="clip9_53_362">
            <rect width="152" height="152" fill="white" transform="translate(384 383.151) rotate(-13.3712)" />
        </clipPath>
        <clipPath id="clip10_53_362">
            <rect width="152" height="152" fill="white" transform="translate(0 602) rotate(30)" />
        </clipPath>
        <clipPath id="clip11_53_362">
            <rect width="152" height="152" fill="white" transform="translate(292 676.34) rotate(-15)" />
        </clipPath>
        <clipPath id="clip12_53_362">
            <rect width="150" height="150" fill="white" transform="translate(1243 650.823) rotate(-15)" />
        </clipPath>
        <clipPath id="clip13_53_362">
            <rect width="150" height="150" fill="white" transform="translate(637 383) rotate(30)" />
        </clipPath>
        <clipPath id="clip14_53_362">
            <rect width="150" height="150" fill="white" transform="translate(2179 517) rotate(30)" />
        </clipPath>
        <clipPath id="clip15_53_362">
            <rect width="151" height="151" fill="white" transform="translate(1844 627.5) rotate(-30)" />
        </clipPath>
        <clipPath id="clip16_53_362">
            <rect width="151" height="151" fill="white" transform="translate(2005.08 414) rotate(15)" />
        </clipPath>
        <clipPath id="clip17_53_362">
            <rect width="170" height="170" fill="white" transform="translate(2195.48 726.712) rotate(-9.21676)" />
        </clipPath>
        <clipPath id="clip18_53_362">
            <rect width="150" height="150" fill="white" transform="translate(1106.06 714) rotate(11.1725)" />
        </clipPath>
        <clipPath id="clip19_53_362">
            <rect width="151" height="151" fill="white" transform="translate(1988 728.789) rotate(-16.8576)" />
        </clipPath>
        <clipPath id="clip20_53_362">
            <rect width="152" height="152" fill="white" transform="translate(1607.46 763) rotate(13.8784)" />
        </clipPath>
        <clipPath id="clip21_53_362">
            <rect width="149" height="149" fill="white" transform="translate(1994.54 851.038) rotate(150)" />
        </clipPath>
    </defs>
</svg>