<?xml version="1.0" encoding="utf-8"?>
<!-- Generator: Adobe Illustrator 28.1.0, SVG Export Plug-In . SVG Version: 6.00 Build 0)  -->
<svg version="1.1"
	 id="svg2" xmlns:rdf="http://www.w3.org/1999/02/22-rdf-syntax-ns#" xmlns:cc="http://creativecommons.org/ns#" xmlns:dc="http://purl.org/dc/elements/1.1/" xmlns:svg="http://www.w3.org/2000/svg"
	 xmlns="http://www.w3.org/2000/svg" xmlns:xlink="http://www.w3.org/1999/xlink" x="0px" y="0px" viewBox="0 0 438.7 101.3"
	 style="enable-background:new 0 0 438.7 101.3;" xml:space="preserve">
<style type="text/css">
	.st0{fill:none;stroke:#999A99;stroke-miterlimit:1.3333;}
	.st1{fill:#343433;}
</style>
<g>
	<path id="path14" class="st0" d="M293.6,17.1c0-0.2-0.2-0.4-0.4-0.4h-5c-0.2,0-0.4,0.2-0.4,0.4v6.2c0,0.2,0.2,0.4,0.4,0.4h5
		c0.2,0,0.4-0.2,0.4-0.4V17.1"/>
	<path id="path16" class="st0" d="M39.9,68.6c-3.3,1.9-9.7,1.9-11.7-2.2c-0.4-0.8-0.7-1.6-0.9-2.4c-0.2-0.7-0.8-1.1-1.5-1.1
		l-6.6,0.2c-0.8,0-1.2,0.5-1.1,1.3c0.9,7.5,4.9,12.1,12.2,14c3.7,1,7.4,0.8,11.1-0.4c17.4-5.8,13.4-30.8-4.7-31.9
		c-4.3-0.3-8.3-0.9-9.3-5.7c-2.1-10,13.1-12.9,15.8-3.3c0.1,0.5,0.6,0.9,1.2,0.9l7,0.1c0.6,0,1.1-0.5,1-1.1
		C50,17.1,21.1,17.6,18.3,35.9C17,44.2,20.2,50,27.7,53.5c3.8,1.7,7.9,0.9,11.6,2.7C44.2,58.7,45,65.7,39.9,68.6"/>
	<path id="path18" class="st0" d="M68.9,49.1V23.5c0-0.4-0.2-0.6-0.6-0.6l-8,0.1c-0.5,0-0.7,0.3-0.7,0.7v53.8c0,0.4,0.3,0.7,0.7,0.7
		H68c0.6,0,0.9-0.3,0.9-0.9c0.1-3.4,0.1-7.2,0-11.5c-0.1-3.4,2.5-5.6,4.6-7.8c0.5-0.5,0.9-0.5,1.3,0.1L91.1,78
		c0.1,0.2,0.3,0.3,0.5,0.3c4.1,0.1,8,0.1,11.6,0c0.1,0,0.1-0.1,0-0.1c-7.6-9.1-15.1-17.9-22.4-26.6c-0.3-0.4-0.3-0.8,0-1.2l21.3-26
		c0.8-0.9,0.5-1.4-0.7-1.4h-7.2c-1.6,0-3,0.7-4,1.9L70.1,49.6C69.3,50.5,68.9,50.4,68.9,49.1"/>
	<path id="path20" class="st0" d="M119.9,23.4c0-0.2-0.2-0.4-0.4-0.4H111c-0.2,0-0.4,0.2-0.4,0.4V78c0,0.2,0.2,0.4,0.4,0.4h8.5
		c0.2,0,0.4-0.2,0.4-0.4V23.4"/>
	<path id="path22" class="st0" d="M158.8,70c0-0.4-0.3-0.7-0.8-0.8L139.2,69c-0.4,0-0.8-0.3-0.8-0.8l-0.2-44.4
		c0-0.4-0.3-0.8-0.8-0.8l-7.6-0.1c-0.4,0-0.8,0.3-0.8,0.8v53.8c0,0.4,0.3,0.8,0.8,0.8l28.4-0.1c0.4,0,0.8-0.4,0.8-0.8L158.8,70"/>
	<path id="path24" class="st0" d="M196,69.9c0-0.5-0.4-0.9-0.9-0.9h-18.9c-0.5,0-0.9-0.4-0.9-0.9l-0.1-44.3c0-0.5-0.4-0.9-0.9-0.9
		L167,23c-0.5,0-0.9,0.4-0.9,0.9L166,77.4c0,0.5,0.4,0.9,0.9,0.9l28.2,0.1c0.5,0,0.9-0.4,0.9-0.9L196,69.9"/>
	<path id="path26" class="st0" d="M240.2,60.6c0,1.3-0.3,1.4-1.1,0.3L213.2,24c-0.5-0.7-1.2-1.1-2-1.1h-7.4c-0.4,0-0.7,0.3-0.7,0.7
		l-0.1,54c0,0.5,0.3,0.8,0.8,0.8l7.6-0.1c0.5,0,0.8-0.3,0.8-0.8V40.8c0-1.3,0.4-1.4,1.1-0.3c8.5,12.1,17,24.3,25.5,36.5
		c1.2,1.8,3.1,1.3,4.9,1.3c1.5,0,3.1,0,4.5-0.1c0.5,0,0.8-0.3,0.8-0.8V23.8c0-0.5-0.3-0.8-0.8-0.8H241c-0.5,0-0.8,0.3-0.8,0.8V60.6"
		/>
	<path id="path28" class="st0" d="M332.7,23.5v54.3c0,0.2,0.2,0.4,0.4,0.4h14.5c14.7,0,26.7-11.1,26.7-24.7v-5.7
		c0-13.6-11.9-24.7-26.7-24.7h-14.5C332.9,23.1,332.7,23.3,332.7,23.5"/>
	<path id="path30" class="st0" d="M393.7,68.9c-0.4,0-0.7-0.3-0.7-0.8V56c0-0.4,0.3-0.7,0.7-0.8l21.6-0.2c0.4,0,0.7-0.3,0.7-0.8
		v-7.4c0-0.4-0.3-0.7-0.7-0.8h-21.6c-0.4,0-0.7-0.3-0.7-0.8V33.1c0-0.4,0.3-0.8,0.8-0.8l26.2-0.2c0.4,0,0.8-0.3,0.8-0.8l-0.2-7.5
		c0-0.4-0.3-0.7-0.8-0.7L384.4,23c-0.4,0-0.8,0.3-0.8,0.8v53.8c0,0.4,0.3,0.8,0.8,0.8l35.4-0.1c0.4,0,0.8-0.3,0.8-0.8l-0.1-7.5
		c0-0.4-0.3-0.7-0.8-0.8L393.7,68.9"/>
	<path id="path32" class="st0" d="M269.2,25.2c-0.3-0.4-0.9-0.4-1.3,0l-2.8,2.6c-0.4,0.3-0.4,0.9,0,1.3l3.7,3.9
		c0.3,0.4,0.9,0.4,1.3,0l2.8-2.6c0.4-0.3,0.4-0.9,0-1.3L269.2,25.2"/>
	<path id="path34" class="st0" d="M313.3,25.1c-0.2-0.3-0.6-0.3-0.9,0l-4.4,4.2c-0.2,0.2-0.3,0.6,0,0.9l3,3.1c0.2,0.3,0.6,0.3,0.9,0
		l4.4-4.2c0.2-0.2,0.3-0.6,0-0.9L313.3,25.1"/>
	<path id="path36" class="st0" d="M312.5,50.7c0-12.2-9.9-22-22-22s-22,9.9-22,22c0,12.2,9.9,22,22,22S312.5,62.9,312.5,50.7"/>
	<path id="path38" class="st0" d="M263.5,48.9c0-0.5-0.4-0.9-0.9-0.9h-5.2c-0.5,0-0.9,0.4-0.9,0.9v3.5c0,0.5,0.4,0.9,0.9,0.9h5.2
		c0.5,0,0.9-0.4,0.9-0.9V48.9"/>
	<path id="path40" class="st0" d="M324.6,48.9c0-0.5-0.4-0.9-0.9-0.9h-5.3c-0.5,0-0.9,0.4-0.9,0.9v3.5c0,0.5,0.4,0.9,0.9,0.9h5.3
		c0.5,0,0.9-0.4,0.9-0.9V48.9"/>
	<path id="path42" class="st0" d="M265,72.6c-0.3,0.3-0.3,0.8,0.1,1.1l3,2.6c0.3,0.3,0.7,0.2,1,0l4.1-4c0.3-0.3,0.3-0.8,0-1.1
		l-3.2-2.9c-0.3-0.3-0.8-0.3-1,0.1L265,72.6"/>
	<path id="path44" class="st0" d="M316.3,73.1c0.3-0.3,0.2-0.7,0-0.9l-4.5-4.1c-0.3-0.2-0.7-0.2-0.9,0l-2.8,3.1
		c-0.3,0.3-0.2,0.7,0,0.9l4.5,4.1c0.3,0.2,0.7,0.2,0.9,0L316.3,73.1"/>
	<path id="path46" class="st0" d="M293.6,77.9c0-0.2-0.2-0.4-0.4-0.4l-5.1,0.1c-0.2,0-0.4,0.2-0.4,0.4l0.1,6.3
		c0,0.2,0.2,0.4,0.4,0.4l5.1-0.1c0.2,0,0.4-0.2,0.4-0.4L293.6,77.9"/>
	<path id="path48" class="st0" d="M342,32.9l0.1,35.3c0,0.7,0.5,1.2,1.2,1.2h3.9c9.9,0,17.8-7.7,17.8-17.2v-3.5
		c0-9.5-8-17.1-17.9-17.1h-3.9C342.5,31.7,342,32.3,342,32.9"/>
	<path id="path50" class="st0" d="M307.1,50.6c0-9.2-7.4-16.6-16.6-16.6s-16.6,7.4-16.6,16.6s7.4,16.6,16.6,16.6
		S307.1,59.8,307.1,50.6"/>
	<path id="path54" class="st1" d="M293.6,23.3c0,0.2-0.2,0.4-0.4,0.4h-5c-0.2,0-0.4-0.2-0.4-0.4v-6.2c0-0.2,0.2-0.4,0.4-0.4h5
		c0.2,0,0.4,0.2,0.4,0.4V23.3"/>
	<path id="path56" class="st1" d="M39.9,68.6c5-2.9,4.3-9.9-0.7-12.3c-3.6-1.8-7.8-1-11.6-2.7C20.2,50,17,44.2,18.3,35.9
		C21.1,17.6,50,17,52.4,36.8c0.1,0.6-0.4,1.2-1,1.1l-7-0.1c-0.5,0-1-0.4-1.2-0.9c-2.6-9.6-17.9-6.6-15.8,3.3c1,4.8,5.1,5.5,9.3,5.7
		C54.8,47,58.8,72,41.4,77.8c-3.7,1.2-7.4,1.4-11.1,0.4c-7.3-1.9-11.4-6.6-12.2-14c-0.1-0.8,0.3-1.2,1.1-1.3l6.6-0.2
		c0.7,0,1.3,0.4,1.5,1.1c0.2,0.8,0.5,1.6,0.9,2.4C30.3,70.5,36.6,70.4,39.9,68.6"/>
	<path id="path58" class="st1" d="M68.9,49.1c0,1.2,0.4,1.4,1.2,0.4l20.1-24.7c1-1.2,2.5-1.9,4-1.9h7.2c1.2,0,1.5,0.5,0.7,1.4
		l-21.3,26c-0.3,0.4-0.3,0.8,0,1.2c7.3,8.7,14.8,17.5,22.4,26.6v0.1c-3.6,0.1-7.5,0.1-11.6,0c-0.2,0-0.4-0.1-0.5-0.3L74.8,58.2
		c-0.4-0.5-0.9-0.6-1.3-0.1c-2.1,2.2-4.7,4.4-4.6,7.8c0.1,4.3,0.1,8.2,0,11.5c0,0.6-0.3,0.9-0.9,0.9h-7.7c-0.4,0-0.7-0.3-0.7-0.7
		V23.8c0-0.5,0.3-0.7,0.7-0.7l8-0.1c0.4,0,0.6,0.2,0.6,0.6V49.1"/>
	<path id="path60" class="st1" d="M119.9,77.9c0,0.2-0.2,0.4-0.4,0.4H111c-0.2,0-0.4-0.2-0.4-0.4V23.4c0-0.2,0.2-0.4,0.4-0.4h8.5
		c0.2,0,0.4,0.2,0.4,0.4V77.9"/>
	<path id="path62" class="st1" d="M158.8,70l0.2,7.4c0,0.4-0.3,0.8-0.8,0.8l-28.4,0.1c-0.4,0-0.8-0.3-0.8-0.8V23.7
		c0-0.4,0.3-0.8,0.8-0.8l7.6,0.1c0.4,0,0.8,0.3,0.8,0.8l0.2,44.4c0,0.4,0.3,0.8,0.8,0.8l18.9,0.3C158.5,69.3,158.8,69.6,158.8,70"/>
	<path id="path64" class="st1" d="M196,69.9l-0.1,7.5c0,0.5-0.4,0.9-0.9,0.9l-28.2-0.1c-0.5,0-0.9-0.4-0.9-0.9l0.3-53.5
		c0-0.5,0.4-0.9,0.9-0.9l7.3-0.1c0.5,0,0.9,0.4,0.9,0.9l0.1,44.3c0,0.5,0.4,0.9,0.9,0.9h18.9C195.6,69,196,69.4,196,69.9"/>
	<path id="path66" class="st1" d="M240.2,60.6V23.9c0-0.5,0.3-0.8,0.8-0.8h7.5c0.5,0,0.8,0.3,0.8,0.8v53.6c0,0.5-0.3,0.8-0.8,0.8
		c-1.5,0.1-3,0.1-4.5,0.1c-1.8,0-3.7,0.5-4.9-1.3c-8.6-12.3-17.1-24.4-25.5-36.5c-0.7-1-1.1-0.9-1.1,0.3v36.7c0,0.5-0.3,0.8-0.8,0.8
		l-7.6,0.1c-0.5,0-0.8-0.3-0.8-0.8l0.1-54c0-0.4,0.3-0.7,0.7-0.7h7.4c0.8,0,1.6,0.4,2,1.1L239.4,61
		C239.9,61.9,240.2,61.8,240.2,60.6"/>
	<path id="path68" class="st1" d="M332.7,23.5c0-0.2,0.2-0.4,0.4-0.4h14.5c14.7,0,26.7,11.1,26.7,24.7v5.7
		c0,13.6-11.9,24.7-26.7,24.7h-14.5c-0.2,0-0.4-0.2-0.4-0.4V23.5 M342,32.9l0.1,35.3c0,0.7,0.5,1.2,1.2,1.2h3.9
		c9.9,0,17.8-7.7,17.8-17.2v-3.5c0-9.5-8-17.1-17.9-17.1h-3.9C342.5,31.7,342,32.3,342,32.9"/>
	<path id="path70" class="st1" d="M393.7,68.9l26.1,0.3c0.4,0,0.7,0.3,0.8,0.8l0.1,7.5c0,0.4-0.3,0.8-0.8,0.8l-35.4,0.1
		c-0.4,0-0.8-0.3-0.8-0.8V23.7c0-0.4,0.3-0.8,0.8-0.8l35.3,0.1c0.4,0,0.8,0.3,0.8,0.7l0.2,7.5c0,0.4-0.3,0.8-0.8,0.8l-26.2,0.2
		c-0.4,0-0.8,0.3-0.8,0.8v12.1c0,0.4,0.3,0.7,0.7,0.8l21.6,0.3c0.4,0,0.7,0.3,0.7,0.8v7.4c0,0.4-0.3,0.7-0.7,0.8l-21.6,0.2
		c-0.4,0-0.7,0.3-0.7,0.8v12.1C392.9,68.6,393.3,68.9,393.7,68.9"/>
	<path id="path72" class="st1" d="M272.9,29.1c0.3,0.4,0.3,0.9,0,1.3l-2.8,2.6c-0.4,0.3-0.9,0.3-1.3,0l-3.7-3.9
		c-0.3-0.4-0.3-0.9,0-1.3l2.8-2.6c0.4-0.3,0.9-0.3,1.3,0L272.9,29.1"/>
	<path id="path74" class="st1" d="M316.2,28.2c0.2,0.2,0.2,0.6,0,0.9l-4.4,4.2c-0.2,0.2-0.6,0.2-0.9,0l-3-3.1
		c-0.2-0.2-0.2-0.6,0-0.9l4.4-4.2c0.2-0.2,0.6-0.2,0.9,0L316.2,28.2"/>
	<path id="path76" class="st1" d="M312.5,50.7c0,12.2-9.9,22-22,22s-22-9.9-22-22c0-12.2,9.9-22,22-22S312.5,38.5,312.5,50.7
		 M307.1,50.6c0-9.2-7.4-16.6-16.6-16.6s-16.6,7.4-16.6,16.6s7.4,16.6,16.6,16.6S307.1,59.8,307.1,50.6"/>
	<path id="path82" class="st1" d="M263.6,52.4c0,0.5-0.4,0.9-0.9,0.9h-5.2c-0.5,0-0.9-0.4-0.9-0.9v-3.5c0-0.5,0.4-0.9,0.9-0.9h5.2
		c0.5,0,0.9,0.4,0.9,0.9V52.4"/>
	<path id="path84" class="st1" d="M324.6,52.4c0,0.5-0.4,0.9-0.9,0.9h-5.3c-0.5,0-0.9-0.4-0.9-0.9v-3.5c0-0.5,0.4-0.9,0.9-0.9h5.3
		c0.5,0,0.9,0.4,0.9,0.9V52.4"/>
	<path id="path86" class="st1" d="M265,72.6l3.9-4.3c0.3-0.3,0.7-0.3,1-0.1l3.2,2.9c0.3,0.3,0.3,0.8,0,1.1l-4.1,4
		c-0.3,0.3-0.7,0.3-1,0l-3-2.6C264.7,73.3,264.7,72.9,265,72.6"/>
	<path id="path88" class="st1" d="M313.5,76.2c-0.3,0.3-0.7,0.3-0.9,0l-4.5-4.1c-0.3-0.3-0.3-0.7,0-0.9l2.8-3.1
		c0.3-0.3,0.7-0.3,0.9,0l4.5,4.1c0.3,0.3,0.3,0.7,0,0.9L313.5,76.2"/>
	<path id="path90" class="st1" d="M293.7,84.3c0,0.2-0.2,0.4-0.4,0.4l-5.1,0.1c-0.2,0-0.4-0.2-0.4-0.4l-0.1-6.3
		c0-0.2,0.2-0.4,0.4-0.4l5.1-0.1c0.2,0,0.4,0.2,0.4,0.4L293.7,84.3"/>
</g>
</svg>
