<?xml version="1.0" encoding="utf-8"?>
<!-- Generator: Adobe Illustrator 28.1.0, SVG Export Plug-In . SVG Version: 6.00 Build 0)  -->
<svg version="1.1"
	 id="svg2" xmlns:rdf="http://www.w3.org/1999/02/22-rdf-syntax-ns#" xmlns:cc="http://creativecommons.org/ns#" xmlns:dc="http://purl.org/dc/elements/1.1/" xmlns:svg="http://www.w3.org/2000/svg"
	 xmlns="http://www.w3.org/2000/svg" xmlns:xlink="http://www.w3.org/1999/xlink" x="0px" y="0px" viewBox="0 0 100 100"
	 style="enable-background:new 0 0 100 100;" xml:space="preserve">
<style type="text/css">
	.st0{fill:none;}
	.st1{fill:#343433;}
</style>
<g>
	<path id="path14" class="st0" d="M53.1,16.4c0-0.2-0.2-0.4-0.4-0.4h-5c-0.2,0-0.4,0.2-0.4,0.4v6.2c0,0.2,0.2,0.4,0.4,0.4h5
		c0.2,0,0.4-0.2,0.4-0.4V16.4"/>
	<path id="path32" class="st0" d="M28.6,24.5c-0.3-0.4-0.9-0.4-1.3,0l-2.8,2.6c-0.4,0.3-0.4,0.9,0,1.3l3.7,3.9
		c0.3,0.4,0.9,0.4,1.3,0l2.8-2.6c0.4-0.3,0.4-0.9,0-1.3L28.6,24.5"/>
	<path id="path34" class="st0" d="M72.7,24.5c-0.2-0.3-0.6-0.3-0.9,0l-4.4,4.2c-0.2,0.2-0.3,0.6,0,0.9l3,3.1c0.2,0.3,0.6,0.3,0.9,0
		l4.4-4.2c0.2-0.2,0.3-0.6,0-0.9L72.7,24.5"/>
	<path id="path36" class="st0" d="M72,50c0-12.2-9.9-22-22-22s-22,9.9-22,22c0,12.2,9.9,22,22,22S72,62.2,72,50"/>
	<path id="path38" class="st0" d="M23,48.2c0-0.5-0.4-0.9-0.9-0.9h-5.2c-0.5,0-0.9,0.4-0.9,0.9v3.5c0,0.5,0.4,0.9,0.9,0.9h5.2
		c0.5,0,0.9-0.4,0.9-0.9L23,48.2"/>
	<path id="path40" class="st0" d="M84,48.2c0-0.5-0.4-0.9-0.9-0.9h-5.3c-0.5,0-0.9,0.4-0.9,0.9v3.5c0,0.5,0.4,0.9,0.9,0.9h5.3
		c0.5,0,0.9-0.4,0.9-0.9V48.2"/>
	<path id="path42" class="st0" d="M24.4,71.9c-0.3,0.3-0.3,0.8,0.1,1.1l3,2.6c0.3,0.3,0.7,0.2,1,0l4.1-4c0.3-0.3,0.3-0.8,0-1.1
		l-3.2-2.9c-0.3-0.3-0.8-0.3-1,0.1L24.4,71.9"/>
	<path id="path44" class="st0" d="M75.7,72.4c0.3-0.3,0.2-0.7,0-0.9l-4.5-4.1c-0.3-0.2-0.7-0.2-0.9,0l-2.8,3.1
		c-0.3,0.3-0.2,0.7,0,0.9l4.5,4.1c0.3,0.2,0.7,0.2,0.9,0L75.7,72.4"/>
	<path id="path46" class="st0" d="M53,77.3c0-0.2-0.2-0.4-0.4-0.4L47.5,77c-0.2,0-0.4,0.2-0.4,0.4l0.1,6.3c0,0.2,0.2,0.4,0.4,0.4
		l5.1-0.1c0.2,0,0.4-0.2,0.4-0.4L53,77.3"/>
	<path id="path50" class="st0" d="M66.5,50c0-9.2-7.4-16.6-16.6-16.6S33.4,40.8,33.4,50S40.8,66.6,50,66.6S66.5,59.1,66.5,50"/>
	<path id="path54" class="st1" d="M53,22.6c0,0.2-0.2,0.4-0.4,0.4h-5c-0.2,0-0.4-0.2-0.4-0.4v-6.2c0-0.2,0.2-0.4,0.4-0.4h5
		c0.2,0,0.4,0.2,0.4,0.4V22.6"/>
	<path id="path72" class="st1" d="M32.4,28.5c0.3,0.4,0.3,0.9,0,1.3l-2.8,2.6c-0.4,0.3-0.9,0.3-1.3,0l-3.7-3.9
		c-0.3-0.4-0.3-0.9,0-1.3l2.8-2.6c0.4-0.3,0.9-0.3,1.3,0L32.4,28.5"/>
	<path id="path74" class="st1" d="M75.7,27.6c0.2,0.2,0.2,0.6,0,0.9l-4.4,4.2c-0.2,0.2-0.6,0.2-0.9,0l-3-3.1c-0.2-0.2-0.2-0.6,0-0.9
		l4.4-4.2c0.2-0.2,0.6-0.2,0.9,0L75.7,27.6"/>
	<path id="path76" class="st1" d="M72,50c0,12.2-9.9,22-22,22s-22-9.9-22-22c0-12.2,9.9-22,22-22S72,37.8,72,50 M66.5,50
		c0-9.2-7.4-16.6-16.6-16.6S33.4,40.8,33.4,50S40.8,66.6,50,66.6S66.5,59.1,66.5,50"/>
	<path id="path82" class="st1" d="M23,51.7c0,0.5-0.4,0.9-0.9,0.9h-5.2c-0.5,0-0.9-0.4-0.9-0.9v-3.5c0-0.5,0.4-0.9,0.9-0.9h5.2
		c0.5,0,0.9,0.4,0.9,0.9L23,51.7"/>
	<path id="path84" class="st1" d="M84,51.8c0,0.5-0.4,0.9-0.9,0.9h-5.3c-0.5,0-0.9-0.4-0.9-0.9v-3.5c0-0.5,0.4-0.9,0.9-0.9h5.3
		c0.5,0,0.9,0.4,0.9,0.9V51.8"/>
	<path id="path86" class="st1" d="M24.4,71.9l3.9-4.3c0.3-0.3,0.7-0.3,1-0.1l3.2,2.9c0.3,0.3,0.3,0.8,0,1.1l-4.1,4
		c-0.3,0.3-0.7,0.3-1,0l-3-2.6C24.2,72.7,24.1,72.2,24.4,71.9"/>
	<path id="path88" class="st1" d="M72.9,75.6c-0.3,0.3-0.7,0.3-0.9,0l-4.5-4.1c-0.3-0.3-0.3-0.7,0-0.9l2.8-3.1
		c0.3-0.3,0.7-0.3,0.9,0l4.5,4.1c0.3,0.3,0.3,0.7,0,0.9L72.9,75.6"/>
	<path id="path90" class="st1" d="M53.1,83.6c0,0.2-0.2,0.4-0.4,0.4l-5.1,0.1c-0.2,0-0.4-0.2-0.4-0.4l-0.1-6.3
		c0-0.2,0.2-0.4,0.4-0.4l5.1-0.1c0.2,0,0.4,0.2,0.4,0.4L53.1,83.6"/>
</g>
</svg>
